<svg width="520" height="520" xmlns="http://www.w3.org/2000/svg" version="1">
 <g id="Layer_1">
  <title>Layer 1</title>
  <ellipse fill="#ffffaa" stroke-width="0" cx="260.00002" cy="260.00001" id="svg_1" rx="259.99308" ry="259.99308" stroke="#000"/>
  <g stroke="null" id="svg_2">
   <path stroke="null" id="svg_3" fill="#95BF46" d="m385.82899,137.76952c-0.26343,-1.91341 -1.93962,-2.97234 -3.32488,-3.08897c-1.38264,-0.11533 -30.6447,-2.2843 -30.6447,-2.2843s-20.32277,-20.17599 -22.55334,-22.40917c-2.23188,-2.23188 -6.59078,-1.55301 -8.28271,-1.055c-0.24901,0.07339 -4.44016,1.36691 -11.37299,3.51229c-6.78868,-19.53513 -18.76976,-37.48711 -39.84741,-37.48711c-0.58189,0 -1.18081,0.02359 -1.77973,0.05767c-5.99448,-7.92754 -13.42008,-11.37168 -19.83393,-11.37168c-49.09994,0 -72.55755,61.37983 -79.91239,92.57103c-19.07906,5.91191 -32.63281,10.11486 -34.36406,10.65874c-10.64957,3.3406 -10.98638,3.6761 -12.38474,13.71103c-1.05238,7.59729 -28.91739,223.09048 -28.91739,223.09048l217.13008,40.68224l117.64849,-25.45097s-41.29951,-279.22285 -41.559,-281.13626l-0.00131,0l-0.00001,-0.00001zm-88.17936,-21.61366l-18.37267,5.6865c0.00655,-1.29483 0.01311,-2.56868 0.01311,-3.96181c0,-12.14098 -1.68538,-21.91641 -4.38904,-29.66572c10.86056,1.36298 18.09352,13.7202 22.74861,27.94103l-0.00001,0zm-36.22111,-25.53354c3.01951,7.56583 4.98273,18.42377 4.98273,33.07578c0,0.74964 -0.00655,1.43506 -0.01311,2.12834c-11.94832,3.70101 -24.932,7.71917 -37.94449,11.75043c7.30634,-28.1979 21.00164,-41.81718 32.97487,-46.95456zm-14.58778,-13.80931c2.11917,0 4.25406,0.71949 6.29722,2.12572c-15.73583,7.40464 -32.60267,26.05383 -39.72554,63.29586l-29.99335,9.28921c8.34299,-28.40628 28.15334,-74.71079 63.42037,-74.71079l0.00131,0z"/>
   <path stroke="null" id="svg_4" fill="#5E8E3E" d="m382.50412,134.68055c-1.38264,-0.11533 -30.6447,-2.2843 -30.6447,-2.2843s-20.32277,-20.17599 -22.55334,-22.40917c-0.83482,-0.83089 -1.96059,-1.25682 -3.13747,-1.4403l-16.41732,335.80736l117.63801,-25.44835s-41.30082,-279.22285 -41.56031,-281.13626c-0.26343,-1.91341 -1.93962,-2.97234 -3.32488,-3.08897"/>
   <path stroke="null" id="svg_5" fill="#FFF" d="m269.80296,199.68668l-14.50653,43.15133s-12.70976,-6.78343 -28.28963,-6.78343c-22.84034,0 -23.98971,14.33354 -23.98971,17.94543c0,19.70812 51.37375,27.25954 51.37375,73.42252c0,36.3194 -23.03562,59.70625 -54.09577,59.70625c-37.27218,0 -56.33288,-23.19682 -56.33288,-23.19682l9.97987,-32.97355s19.59279,16.82097 36.12544,16.82097c10.8029,0 15.1972,-8.5055 15.1972,-14.72015c0,-25.70785 -42.14743,-26.85458 -42.14743,-69.09768c0,-35.55404 25.51912,-69.96003 77.03178,-69.96003c19.84835,0 29.65392,5.68518 29.65392,5.68518"/>
  </g>
 </g>

</svg>