<svg width="178" height="40" xmlns="http://www.w3.org/2000/svg" version="1">
 <g id="Layer_1">
  <title>Layer 1</title>
  <g stroke="null">
   <path stroke="null" d="m44.90013,23.66454c0.61986,-1.17691 0.97484,-2.51493 0.97484,-3.9376c0,-3.61593 -2.27136,-6.69392 -5.46185,-7.90688c0,-0.00382 0.00055,-0.00765 0.00055,-0.01201c0,-6.33402 -5.13472,-11.46874 -11.46874,-11.46874c-5.34334,0 -9.81997,3.65962 -11.09355,8.60538c-0.80609,-0.26487 -1.66515,-0.41342 -2.55971,-0.41342c-4.20084,0 -7.65839,3.16373 -8.13188,7.23732c-2.84206,0.60129 -4.97525,3.12223 -4.97525,6.14288c0,3.46848 2.81203,6.2805 6.2805,6.2805c0.09667,0 0.19224,-0.00655 0.28726,-0.01201c-0.00218,0.09557 -0.0142,0.18896 -0.0142,0.28508c0,6.18329 5.01239,11.19568 11.19568,11.19568c3.51544,0 6.64914,-1.6231 8.70205,-4.15824c1.18947,1.21514 2.84316,1.97372 4.67815,1.97372c2.53951,0 4.73714,-1.44725 5.82503,-3.55968c0.57453,0.18295 1.18565,0.2829 1.8208,0.2829c3.31774,0 6.00744,-2.68969 6.00744,-6.00744c0,-1.80824 -0.80281,-3.42588 -2.0671,-4.52742z" fill="#c7ede6"/>
   <path stroke="null" d="m15.56472,16.45015l0,0.27307l1.63839,0l0,-0.27307c0,0 2.31669,0 3.00372,0c1.35713,0 2.45759,-1.10045 2.45759,-2.45759c0,-1.27412 -0.9732,-2.30959 -2.21456,-2.43301c0.01201,-0.09885 0.03004,-0.19551 0.03004,-0.29764c0,-1.35713 -1.10045,-2.45759 -2.45759,-2.45759c-0.78534,0 -1.47619,0.37465 -1.9262,0.94808c-0.07646,-1.4396 -1.25719,-2.58647 -2.71591,-2.58647c-1.50787,0 -2.73065,1.22279 -2.73065,2.73065c0,0.24357 0.04205,0.47513 0.10213,0.70014c-0.35062,-0.42434 -0.87436,-0.70014 -1.46745,-0.70014c-0.97266,0 -1.76619,0.72908 -1.88688,1.66843c-0.09885,-0.01201 -0.19551,-0.03004 -0.29764,-0.03004c-1.35713,0 -2.45759,1.10045 -2.45759,2.45759s1.10045,2.45759 2.45759,2.45759s5.18824,0 5.18824,0l3.27678,0z" fill="#fdfcef"/>
   <path stroke="null" d="m13.3802,6.89287c-1.65641,0 -3.00372,1.3473 -3.00372,3.00372c0,0.00874 0,0.01693 0,0.02567c-0.32877,-0.19388 -0.70451,-0.29873 -1.09226,-0.29873c-0.99997,0 -1.86285,0.68867 -2.10697,1.64112c-0.02567,-0.00164 -0.05134,-0.00273 -0.07755,-0.00273c-1.50568,0 -2.73065,1.22497 -2.73065,2.73065s1.22497,2.73065 2.73065,2.73065l8.46502,0c0.15073,0 0.27307,-0.12233 0.27307,-0.27307s-0.12233,-0.27307 -0.27307,-0.27307l-8.46502,0c-1.20476,0 -2.18452,-0.97976 -2.18452,-2.18452s0.97976,-2.18452 2.18452,-2.18452c0.0639,0 0.12561,0.00928 0.18732,0.01748l0.077,0.01038c0.01147,0.00164 0.02239,0.00218 0.03386,0.00218c0.13435,0 0.25231,-0.10103 0.27033,-0.23866c0.10431,-0.81537 0.79899,-1.42977 1.616,-1.42977c0.48333,0 0.94098,0.219 1.25665,0.60074c0.05352,0.06444 0.13162,0.0994 0.21081,0.0994c0.0426,0 0.0852,-0.00983 0.12452,-0.03058c0.11414,-0.05844 0.17149,-0.18896 0.13872,-0.31293c-0.06281,-0.23757 -0.0923,-0.43745 -0.0923,-0.62969c0,-1.35495 1.10264,-2.45759 2.45759,-2.45759c1.30034,0 2.37403,1.02236 2.44339,2.32815c0.00601,0.1136 0.08192,0.21135 0.1906,0.24576c0.02731,0.00874 0.05516,0.01311 0.08301,0.01311c0.08192,0 0.16165,-0.03768 0.21408,-0.10486c0.42107,-0.5363 1.0442,-0.84377 1.71103,-0.84377c1.20476,0 2.18452,0.97976 2.18452,2.18452c0,0.0639 -0.00928,0.12561 -0.01748,0.18732l-0.01038,0.077c-0.00874,0.07318 0.01201,0.14636 0.05789,0.20371c0.04587,0.05734 0.11305,0.09393 0.18568,0.10103c1.12284,0.11196 1.9688,1.04147 1.9688,2.16159c0,1.20476 -0.97976,2.18452 -2.18452,2.18452l-3.00372,0c-0.15073,0 -0.27307,0.12233 -0.27307,0.27307s0.12233,0.27307 0.27307,0.27307l3.00372,0c1.50568,0 2.73065,-1.22497 2.73065,-2.73065c0,-1.30908 -0.92241,-2.41007 -2.18616,-2.66348c0.00109,-0.02239 0.00164,-0.04478 0.00164,-0.06717c0,-1.50568 -1.22497,-2.73065 -2.73065,-2.73065c-0.64225,0 -1.25228,0.22719 -1.73833,0.6357c-0.32659,-1.3129 -1.50841,-2.27409 -2.90378,-2.27409l0,0z" fill="#472b29"/>
   <path stroke="null" d="m12.561,10.71578c-0.76622,0 -1.42485,0.54558 -1.59088,1.27849c-0.20043,-0.12124 -0.42926,-0.18623 -0.66191,-0.18623c-0.65645,0 -1.2004,0.48988 -1.28505,1.1294c-0.11086,-0.02512 -0.21627,-0.03714 -0.31949,-0.03714c-0.83503,0 -1.53517,0.65536 -1.59361,1.49203c-0.00492,0.07537 0.05188,0.1409 0.1267,0.14636c0.00328,0 0.00655,0 0.00983,0c0.071,0 0.13107,-0.05516 0.13599,-0.1267c0.04861,-0.69413 0.6286,-1.23862 1.32109,-1.23862c0.12506,0 0.25668,0.02294 0.40304,0.06936c0.01201,0.00382 0.02458,0.00546 0.03659,0.00546c0.03004,0 0.06007,-0.01092 0.0852,-0.02949c0.03495,-0.02512 0.05571,-0.0699 0.05571,-0.1136c0,-0.5647 0.4593,-1.02399 1.02399,-1.02399c0.24412,0 0.48333,0.09175 0.67229,0.25832c0.02567,0.02239 0.05789,0.03441 0.09011,0.03441c0.01748,0 0.03441,-0.00328 0.05079,-0.01038c0.04806,-0.01911 0.08083,-0.0639 0.08465,-0.11578c0.0568,-0.70615 0.65153,-1.25883 1.35495,-1.25883c0.1136,0 0.23211,0.01857 0.37246,0.05844c0.01256,0.00382 0.02567,0.00546 0.03823,0.00546c0.05953,0 0.11305,-0.03987 0.13053,-0.0994c0.02075,-0.07264 -0.0213,-0.148 -0.09393,-0.16875c-0.16493,-0.04697 -0.30747,-0.06881 -0.44728,-0.06881l0,0z" fill="#472b29"/>
   <path stroke="null" d="m20.14294,11.53498c-0.72417,0 -1.3697,0.48988 -1.56958,1.19166c-0.02075,0.07264 0.0213,0.148 0.09393,0.16875c0.01311,0.00328 0.02567,0.00492 0.03768,0.00492c0.05953,0 0.11414,-0.03932 0.13107,-0.0994c0.16657,-0.58436 0.70396,-0.99287 1.30689,-0.99287c0.0639,0 0.12561,0.00765 0.18678,0.01584c0.00655,0.00109 0.01256,0.00164 0.01911,0.00164c0.06608,0 0.12506,-0.05024 0.13435,-0.11851c0.01038,-0.07482 -0.04205,-0.14363 -0.11687,-0.15346c-0.07318,-0.00983 -0.14746,-0.01857 -0.22337,-0.01857l0,0z" fill="#472b29"/>
   <path stroke="null" d="m5.73437,22.73065l-5.46131,0c-0.15073,0 -0.27307,-0.12233 -0.27307,-0.27307s0.12233,-0.27307 0.27307,-0.27307l5.46131,0c0.15073,0 0.27307,0.12233 0.27307,0.27307s-0.12179,0.27307 -0.27307,0.27307z" fill="#fff"/>
   <path stroke="null" d="m7.37276,22.73065l-0.54613,0c-0.15073,0 -0.27307,-0.12233 -0.27307,-0.27307s0.12233,-0.27307 0.27307,-0.27307l0.54613,0c0.15073,0 0.27307,0.12233 0.27307,0.27307s-0.12179,0.27307 -0.27307,0.27307z" fill="#fff"/>
   <path stroke="null" d="m10.0985,23.82292l-4.91026,0c-0.15073,0 -0.27307,-0.12233 -0.27307,-0.27307s0.12233,-0.27307 0.27307,-0.27307l4.91026,0c0.15073,0 0.27307,0.12233 0.27307,0.27307s-0.12233,0.27307 -0.27307,0.27307z" fill="#fff"/>
   <path stroke="null" d="m4.09598,23.82292l-0.54613,0c-0.15073,0 -0.27307,-0.12233 -0.27307,-0.27307s0.12233,-0.27307 0.27307,-0.27307l0.54613,0c0.15073,0 0.27307,0.12233 0.27307,0.27307s-0.12179,0.27307 -0.27307,0.27307z" fill="#fff"/>
   <path stroke="null" d="m2.45759,23.82292l-1.09226,0c-0.15073,0 -0.27307,-0.12233 -0.27307,-0.27307s0.12233,-0.27307 0.27307,-0.27307l1.09226,0c0.15073,0 0.27307,0.12233 0.27307,0.27307s-0.12179,0.27307 -0.27307,0.27307z" fill="#fff"/>
   <path stroke="null" d="m5.73437,24.91518l-1.09226,0c-0.15073,0 -0.27307,-0.12233 -0.27307,-0.27307s0.12233,-0.27307 0.27307,-0.27307l1.09226,0c0.15073,0 0.27307,0.12233 0.27307,0.27307s-0.12233,0.27307 -0.27307,0.27307z" fill="#fff"/>
   <path stroke="null" d="m7.37276,20c-0.09667,0 -0.44947,0 -0.54613,0c-0.15073,0 -0.27307,0.12233 -0.27307,0.27307c0,0.15073 0.12233,0.27307 0.27307,0.27307c0.09667,0 0.44947,0 0.54613,0c0.15073,0 0.27307,-0.12233 0.27307,-0.27307c0,-0.15073 -0.12233,-0.27307 -0.27307,-0.27307z" fill="#fff"/>
   <path stroke="null" d="m7.37276,21.09226c-0.09667,0 -2.63399,0 -2.73065,0c-0.15073,0 -0.27307,0.12233 -0.27307,0.27307c0,0.15073 0.12233,0.27307 0.27307,0.27307c0.09667,0 2.63399,0 2.73065,0c0.15073,0 0.27307,-0.12233 0.27307,-0.27307c0,-0.15073 -0.12233,-0.27307 -0.27307,-0.27307z" fill="#fff"/>
   <path stroke="null" d="m10.10342,22.18452c-0.09667,0 -1.54173,0 -1.63839,0c-0.15073,0 -0.27307,0.12233 -0.27307,0.27307c0,0.15073 0.12233,0.27307 0.27307,0.27307c0.09667,0 1.54173,0 1.63839,0c0.15073,0 0.27307,-0.12233 0.27307,-0.27307c0,-0.15073 -0.12233,-0.27307 -0.27307,-0.27307z" fill="#fff"/>
   <path stroke="null" d="m43.96352,17.81548l-5.46131,0c-0.15073,0 -0.27307,-0.12233 -0.27307,-0.27307s0.12233,-0.27307 0.27307,-0.27307l5.46131,0c0.15073,0 0.27307,0.12233 0.27307,0.27307s-0.12233,0.27307 -0.27307,0.27307z" fill="#fff"/>
   <path stroke="null" d="m46.14804,17.81548l-1.09226,0c-0.15073,0 -0.27307,-0.12233 -0.27307,-0.27307s0.12233,-0.27307 0.27307,-0.27307l1.09226,0c0.15073,0 0.27307,0.12233 0.27307,0.27307s-0.12233,0.27307 -0.27307,0.27307z" fill="#fff"/>
   <path stroke="null" d="m48.87869,18.90774l-5.46131,0c-0.15073,0 -0.27307,-0.12233 -0.27307,-0.27307s0.12233,-0.27307 0.27307,-0.27307l5.46131,0c0.15073,0 0.27307,0.12233 0.27307,0.27307s-0.12179,0.27307 -0.27307,0.27307z" fill="#fff"/>
   <path stroke="null" d="m42.32512,18.90774l-0.54613,0c-0.15073,0 -0.27307,-0.12233 -0.27307,-0.27307s0.12233,-0.27307 0.27307,-0.27307l0.54613,0c0.15073,0 0.27307,0.12233 0.27307,0.27307s-0.12233,0.27307 -0.27307,0.27307z" fill="#fff"/>
   <path stroke="null" d="m40.67035,18.90774l-1.07588,0c-0.15073,0 -0.27307,-0.12233 -0.27307,-0.27307s0.12233,-0.27307 0.27307,-0.27307l1.07588,0c0.15073,0 0.27307,0.12233 0.27307,0.27307s-0.12233,0.27307 -0.27307,0.27307z" fill="#fff"/>
   <path stroke="null" d="m45.60191,16.72322l-2.73065,0c-0.15073,0 -0.27307,-0.12233 -0.27307,-0.27307s0.12233,-0.27307 0.27307,-0.27307l2.73065,0c0.15073,0 0.27307,0.12233 0.27307,0.27307s-0.12179,0.27307 -0.27307,0.27307z" fill="#fff"/>
   <path stroke="null" d="m43.96352,20l-1.09226,0c-0.15073,0 -0.27307,-0.12233 -0.27307,-0.27307s0.12233,-0.27307 0.27307,-0.27307l1.09226,0c0.15073,0 0.27307,0.12233 0.27307,0.27307s-0.12233,0.27307 -0.27307,0.27307z" fill="#fff"/>
   <g stroke="null">
    <polygon stroke="null" points="35.68037414550781,9.623518943786621 33.10152626037598,9.623518943786621 31.038225173950195,7.438995838165283 29.491044998168945,34.19939422607422 38.775306701660156,32.01487350463867 " fill="#6f913d"/>
    <path stroke="null" d="m29.49105,34.58169c-0.08902,0 -0.1764,-0.03168 -0.24576,-0.08957c-0.0923,-0.0781 -0.14309,-0.19388 -0.13599,-0.31457l1.54719,-26.7604c0.00928,-0.15237 0.10759,-0.28453 0.25067,-0.33696c0.14527,-0.05352 0.30474,-0.0142 0.40905,0.09667l1.95023,2.06437l2.4139,0c0.19115,0 0.3528,0.1409 0.37847,0.32986l3.09492,22.39136c0.02731,0.19497 -0.0994,0.37901 -0.29109,0.42434l-9.28422,2.18452c-0.02894,0.0071 -0.05789,0.01038 -0.08738,0.01038zm1.8776,-26.23612l-1.46691,25.36394l8.447,-1.98737l-3.00153,-21.71634l-2.24514,0c-0.10486,0 -0.20589,-0.04314 -0.27798,-0.12015l-1.45544,-1.54009z" fill="#472b29"/>
   </g>
   <g stroke="null">
    <path stroke="null" d="m23.09696,11.45196l-1.50241,-0.37956c0.82193,-3.6629 2.78308,-6.16745 4.87913,-6.23135c0.92951,-0.03277 2.62689,0.41834 3.5635,3.72843l-1.47947,0.47022c-0.46148,-1.63075 -1.19111,-2.56135 -2.00648,-2.56135c-0.01092,0 -0.02185,0 -0.03277,0.00055c-1.12503,0.03386 -2.70662,1.78858 -3.42151,4.97307z" fill="#6f913d"/>
    <path stroke="null" d="m23.09696,11.83426c-0.03113,0 -0.06281,-0.00382 -0.09339,-0.01147l-1.50241,-0.37956c-0.20098,-0.05079 -0.32495,-0.25231 -0.27962,-0.45438c0.86125,-3.83602 2.96713,-6.46018 5.24067,-6.52954c1.02891,-0.05571 2.93218,0.43472 3.94306,4.00641c0.05625,0.19825 -0.05571,0.40578 -0.25231,0.46803l-1.47947,0.47022c-0.09885,0.03168 -0.20535,0.0213 -0.2971,-0.02785c-0.09066,-0.04915 -0.15838,-0.13271 -0.18678,-0.23265c-0.40468,-1.42977 -1.0169,-2.28337 -1.63839,-2.28337c-0.86179,0.02567 -2.36693,1.49257 -3.08127,4.67542c-0.02294,0.10103 -0.0852,0.18787 -0.17258,0.24194c-0.06062,0.03768 -0.12998,0.0568 -0.20043,0.0568zm-1.04366,-1.04038l0.76185,0.19278c0.8039,-3.16264 2.44066,-4.85182 3.69184,-4.88951c0.00055,0 0.00109,0 0.00109,0c0.9814,0 1.7782,0.86999 2.30249,2.46141l0.75202,-0.23921c-0.87872,-2.7454 -2.28446,-3.10967 -3.07526,-3.09656c-1.85357,0.05625 -3.60938,2.279 -4.43403,5.57108z" fill="#472b29"/>
   </g>
   <g stroke="null">
    <path stroke="null" d="m27.53208,8.52853c-0.21026,-2.87155 -1.6657,-4.96542 -3.2604,-5.14182c-2.57555,-0.30201 -5.12598,4.2336 -6.28815,8.00627l-2.65802,0.96119l-2.18452,18.56844l16.38392,3.27678l1.63839,-26.7604l-3.63122,1.08953zm-3.44062,-3.51326c0.55978,0.06226 1.71157,1.56084 1.83008,3.99658l-5.98614,1.79568c1.20968,-2.94747 2.91907,-5.92934 4.15605,-5.79226z" fill="#88ae45"/>
    <path stroke="null" d="m29.52546,34.58169c-0.02512,0 -0.05024,-0.00273 -0.07537,-0.00765l-16.38392,-3.27678c-0.19551,-0.03878 -0.32822,-0.22173 -0.30474,-0.41997l2.18452,-18.56844c0.01693,-0.14363 0.1136,-0.26542 0.24958,-0.31457l2.47943,-0.89675c1.31672,-4.15332 3.93378,-8.40386 6.64095,-8.09093c1.76564,0.19442 3.21671,2.27518 3.55149,5.02112l3.18613,-0.95573c0.12015,-0.03604 0.24958,-0.01038 0.34734,0.06663c0.0983,0.0781 0.15182,0.19825 0.14418,0.32331l-1.63839,26.7604c-0.00655,0.11032 -0.06062,0.21244 -0.148,0.27962c-0.06772,0.05188 -0.14964,0.07974 -0.2332,0.07974zm-15.9634,-3.96491l15.60841,3.12168l1.57832,-25.77573l-3.10639,0.9317c-0.11196,0.03386 -0.23156,0.0142 -0.32713,-0.05188c-0.09557,-0.06554 -0.15565,-0.17094 -0.16439,-0.28672c-0.18787,-2.56681 -1.44397,-4.62627 -2.92125,-4.78957c-2.18616,-0.24958 -4.66614,3.79561 -5.88128,7.73922c-0.03495,0.11469 -0.12233,0.20644 -0.23538,0.24685l-2.43574,0.88036l-2.11516,17.98408zm6.37334,-19.42696c-0.10595,0 -0.20971,-0.04424 -0.28344,-0.12561c-0.09885,-0.10868 -0.12616,-0.26487 -0.07045,-0.40141c0.77059,-1.87814 2.75632,-6.23572 4.55145,-6.0271l0,0c0.82193,0.0912 2.04471,1.79349 2.16978,4.35758c0.00874,0.17531 -0.10322,0.33423 -0.27197,0.38502l-5.98614,1.79568c-0.0355,0.01038 -0.07264,0.01584 -0.10923,0.01584zm4.07086,-5.79718c-0.6701,0 -2.00375,1.62856 -3.4013,4.81469l4.91463,-1.47401c-0.18787,-2.16486 -1.21023,-3.29535 -1.47073,-3.3385c-0.0142,-0.00164 -0.0284,-0.00218 -0.0426,-0.00218z" fill="#472b29"/>
   </g>
   <g stroke="null">
    <path stroke="null" d="m26.65773,14.3339c-0.54613,-0.54613 -6.43724,-2.25279 -8.08929,2.93545c-1.70666,5.35918 3.54985,5.63225 3.00372,7.81677s-4.09598,-0.71707 -4.09598,-0.71707l-0.8192,2.93545c0.27307,0.88746 6.8949,3.95945 8.46502,-1.29706c1.7285,-5.78625 -4.71038,-5.29091 -3.61812,-8.02157c0.45329,-1.13377 2.35492,-1.43359 3.99331,-0.34133c0.444,-1.19439 1.16053,-3.31064 1.16053,-3.31064z" fill="#fff"/>
   </g>
   <g stroke="null">
    <path stroke="null" d="m24.44863,21.91965c-0.07427,0 -0.148,-0.03058 -0.20207,-0.08957c-0.44073,-0.48551 -0.97703,-0.85415 -1.49531,-1.21186c-1.04584,-0.7198 -2.03434,-1.39973 -1.50077,-2.73338c0.20043,-0.5008 0.64225,-0.87982 1.24354,-1.06659c0.87272,-0.27033 1.92074,-0.1125 2.86227,0.41943c0.35225,-0.96884 0.81046,-2.3074 0.97812,-2.79947c-0.66355,-0.36318 -3.29208,-1.06277 -5.35044,0.09393c-0.13162,0.07427 -0.29764,0.02785 -0.37191,-0.10376c-0.07373,-0.13162 -0.02731,-0.29819 0.10431,-0.37191c2.46305,-1.38608 5.65027,-0.39977 6.13469,0.08465c0.07373,0.07373 0.09885,0.18241 0.06554,0.28071c-0.00765,0.0213 -0.72308,2.13373 -1.16326,3.31829c-0.02949,0.07864 -0.0923,0.13926 -0.17149,0.16493c-0.08028,0.02512 -0.16657,0.01311 -0.23593,-0.03277c-0.86343,-0.57562 -1.89343,-0.78097 -2.69024,-0.53248c-0.44127,0.13708 -0.76021,0.4025 -0.89838,0.74765c-0.35444,0.88692 0.20316,1.32327 1.30361,2.0813c0.51882,0.35717 1.10646,0.7624 1.58979,1.29433c0.10158,0.11141 0.09284,0.28453 -0.01857,0.38557c-0.05243,0.04751 -0.11796,0.071 -0.1835,0.071z" fill="#472b29"/>
   </g>
   <g stroke="null">
    <path stroke="null" d="m25.12201,26.2805c-0.02567,0 -0.05188,-0.00382 -0.0781,-0.01147c-0.14472,-0.04314 -0.22664,-0.19551 -0.1835,-0.33969c0.39103,-1.31126 0.38065,-2.37294 -0.03331,-3.24565c-0.06499,-0.13599 -0.00655,-0.29873 0.12943,-0.36372c0.13653,-0.06444 0.29983,-0.00655 0.36372,0.12998c0.47404,0.99997 0.49479,2.18944 0.06335,3.63505c-0.0355,0.11906 -0.14363,0.19551 -0.2616,0.19551z" fill="#472b29"/>
   </g>
   <g stroke="null">
    <path stroke="null" d="m21.15109,29.27821c-0.22664,0 -0.44619,-0.01256 -0.6559,-0.03386c-1.87432,-0.18732 -3.89828,-1.2064 -4.09926,-1.85957c-0.01529,-0.05024 -0.01584,-0.10322 -0.00164,-0.15401l0.8192,-2.93545c0.02458,-0.08847 0.0923,-0.15892 0.18077,-0.18678c0.08683,-0.0284 0.1835,-0.00983 0.25504,0.04915c0.00382,0.00328 0.41014,0.33314 0.95573,0.67829c0.12725,0.08028 0.16548,0.24904 0.0852,0.37683c-0.08028,0.12725 -0.24849,0.16548 -0.37683,0.08465c-0.27143,-0.17094 -0.50736,-0.33751 -0.68266,-0.4664l-0.68266,2.44557c0.26214,0.35553 1.92183,1.30634 3.77704,1.4396c1.20749,0.08738 2.83715,-0.16056 3.74536,-1.83281c0.07209,-0.13271 0.23757,-0.18132 0.37028,-0.10977c0.13271,0.07209 0.18186,0.23811 0.10977,0.37028c-0.92569,1.70393 -2.47397,2.13373 -3.79943,2.13428z" fill="#472b29"/>
   </g>
   <g stroke="null">
    <path stroke="null" d="m20.5853,26.17292c-0.32495,0 -0.70232,-0.08902 -1.12885,-0.26597c-0.13926,-0.05789 -0.20535,-0.21736 -0.14746,-0.35662c0.05789,-0.13981 0.21736,-0.2048 0.35717,-0.148c0.56579,0.23538 1.00761,0.28672 1.27958,0.15073c0.17531,-0.08847 0.29382,-0.26269 0.36154,-0.53357c0.16111,-0.64443 -0.29983,-1.08025 -1.12885,-1.79459c-1.08243,-0.93334 -2.56463,-2.21128 -2.15503,-4.85456c0.02294,-0.14909 0.16165,-0.25122 0.31184,-0.22828c0.14909,0.02294 0.25122,0.16275 0.22774,0.31129c-0.36372,2.34399 0.87709,3.41386 1.97153,4.35758c0.79844,0.68812 1.55265,1.33802 1.30198,2.34017c-0.10704,0.42817 -0.3244,0.7269 -0.64607,0.8891c-0.17422,0.08902 -0.37683,0.13271 -0.60511,0.13271z" fill="#472b29"/>
   </g>
   <g stroke="null">
    <path stroke="null" d="m18.56844,17.54241c-0.02731,0 -0.05516,-0.00437 -0.08301,-0.01256c-0.14363,-0.04587 -0.22282,-0.19934 -0.17749,-0.34297c0.27962,-0.87709 0.69522,-1.61928 1.23589,-2.20418c0.10213,-0.11141 0.2747,-0.11742 0.38611,-0.01529c0.11086,0.10267 0.11742,0.27525 0.01529,0.38557c-0.48606,0.52647 -0.86125,1.19876 -1.11629,1.99938c-0.03714,0.11578 -0.14472,0.19005 -0.2605,0.19005z" fill="#472b29"/>
   </g>
   <g stroke="null">
    <path stroke="null" d="m25.31206,11.14176c-0.05953,0 -0.11414,-0.03878 -0.13107,-0.0994c-0.02075,-0.07264 0.0213,-0.148 0.09393,-0.16875l3.90593,-1.10865c0.07264,-0.01911 0.148,0.02185 0.16875,0.09393c0.02075,0.07264 -0.0213,0.148 -0.09393,0.16875l-3.90593,1.10865c-0.01256,0.00382 -0.02567,0.00546 -0.03768,0.00546z" fill="#472b29"/>
   </g>
   <g stroke="null">
    <path stroke="null" d="m19.85458,12.69059c-0.05953,0 -0.11414,-0.03878 -0.13162,-0.0994c-0.02075,-0.07264 0.02185,-0.148 0.09393,-0.16875l4.24835,-1.20586c0.07318,-0.02185 0.148,0.0213 0.16875,0.09393s-0.02185,0.148 -0.09393,0.16875l-4.24835,1.20586c-0.01256,0.00382 -0.02512,0.00546 -0.03714,0.00546z" fill="#472b29"/>
   </g>
   <g stroke="null">
    <path stroke="null" d="m15.56472,20.95573c-0.00492,0 -0.00983,0 -0.01475,-0.00055c-0.07482,-0.00874 -0.12889,-0.07591 -0.12124,-0.15019l0.78534,-7.27064c0.00601,-0.05571 0.04478,-0.10213 0.0983,-0.11687l2.25497,-0.64007c0.07318,-0.02294 0.148,0.0213 0.16875,0.09393c0.02075,0.07264 -0.02185,0.148 -0.09393,0.16875l-2.1665,0.61494l-0.77496,7.17889c-0.00765,0.0699 -0.06717,0.12179 -0.13599,0.12179z" fill="#472b29"/>
   </g>
   <g stroke="null">
    <path stroke="null" d="m28.21202,24.09707c-0.00273,0 -0.00601,0 -0.00928,-0.00055c-0.07537,-0.00492 -0.13216,-0.0699 -0.1267,-0.14527l0.18678,-2.83387c0.00492,-0.07482 0.05625,-0.13162 0.14527,-0.1267c0.07537,0.00492 0.13216,0.0699 0.1267,0.14527l-0.18678,2.83387c-0.00437,0.07154 -0.06444,0.12725 -0.13599,0.12725z" fill="#472b29"/>
   </g>
   <g stroke="null">
    <path stroke="null" d="m27.90018,28.83912c-0.00273,0 -0.00601,0 -0.00928,-0.00055c-0.07537,-0.00492 -0.13216,-0.0699 -0.1267,-0.14527l0.22883,-3.47994c0.00437,-0.07482 0.05898,-0.13544 0.14527,-0.1267c0.07537,0.00492 0.13216,0.0699 0.1267,0.14527l-0.22883,3.47994c-0.00437,0.07154 -0.06444,0.12725 -0.13599,0.12725z" fill="#472b29"/>
   </g>
   <g stroke="null">
    <path stroke="null" d="m27.68227,32.15141c-0.00655,0 -0.01256,-0.00055 -0.01911,-0.00109l-4.36904,-0.6144c-0.07482,-0.01092 -0.1267,-0.07974 -0.11633,-0.15455c0.01092,-0.07482 0.08137,-0.11796 0.15401,-0.11633l4.22377,0.59419l0.12124,-1.83555c0.00492,-0.07482 0.0568,-0.14199 0.14527,-0.1267c0.07537,0.00492 0.13216,0.0699 0.1267,0.14527l-0.13053,1.98245c-0.00218,0.03768 -0.02021,0.07318 -0.05024,0.09721c-0.02403,0.01857 -0.05516,0.02949 -0.08574,0.02949z" fill="#472b29"/>
   </g>
   <g stroke="null">
    <path stroke="null" d="m35.77156,29.01116c0,0 -0.85579,0 -1.91146,0s-1.91146,-0.85579 -1.91146,-1.91146c0,-0.97266 0.72908,-1.76619 1.66843,-1.88688c-0.01529,-0.09776 -0.03004,-0.19551 -0.03004,-0.29764c0,-1.05567 0.85579,-1.91146 1.91146,-1.91146c0.56361,0 1.06495,0.24849 1.41448,0.63624c0.20971,-0.9874 1.08516,-1.7285 2.13537,-1.7285c1.2064,0 2.18452,0.97812 2.18452,2.18452c0,0.10431 -0.01638,0.20425 -0.03058,0.30474c0.23374,-0.18787 0.52647,-0.30474 0.84978,-0.30474c0.67065,0 1.22606,0.48442 1.34075,1.1223c0.09776,-0.01529 0.19551,-0.03004 0.29764,-0.03004c1.05567,0 1.91146,0.85579 1.91146,1.91146s-0.85579,1.91146 -1.91146,1.91146s-4.09598,0 -4.09598,0l0,0.27307l-3.82291,0l0,-0.27307z" fill="#fdfcef"/>
    <path stroke="null" d="m34.81583,26.55357c0.07537,0 0.13653,-0.06117 0.13653,-0.13653c0,-0.66792 -0.5434,-1.21132 -1.21132,-1.21132c-0.01857,0.00492 -0.4025,-0.00055 -0.67939,0.07427c-0.07264,0.01966 -0.11578,0.09448 -0.09612,0.16712c0.01966,0.07318 0.09448,0.11633 0.16712,0.09612c0.24248,-0.06554 0.60074,-0.06554 0.60784,-0.06444c0.51773,0 0.9388,0.42107 0.9388,0.93825c0,0.07537 0.06117,0.13653 0.13653,0.13653z" fill="#472b29"/>
    <circle stroke="null" fill="#472b29" r="0.27306" cy="29.01116" cx="38.50221"/>
    <path stroke="null" d="m33.8601,29.28422l1.91146,0c0.15073,0 0.27307,-0.12233 0.27307,-0.27307s-0.12233,-0.27307 -0.27307,-0.27307l-1.91146,0c-0.9033,0 -1.63839,-0.73509 -1.63839,-1.63839c0,-0.81701 0.6144,-1.51169 1.42977,-1.616c0.07318,-0.00983 0.13926,-0.04806 0.1835,-0.10704s0.06281,-0.13326 0.05134,-0.20589c-0.01256,-0.0841 -0.02621,-0.16821 -0.02621,-0.25559c0,-0.9033 0.73509,-1.63839 1.63839,-1.63839c0.46421,0 0.89456,0.19388 1.21186,0.54613c0.06827,0.07591 0.17531,0.10813 0.27307,0.08083c0.0994,-0.02676 0.17531,-0.1065 0.19661,-0.20698c0.18623,-0.87599 0.97211,-1.51224 1.86831,-1.51224c1.05403,0 1.91146,0.85743 1.91146,1.91146c0,0.0781 -0.01147,0.15292 -0.02239,0.22828c-0.01584,0.11086 0.03441,0.23921 0.13216,0.29491c0.09776,0.05571 0.21627,0.06444 0.30365,-0.00546c0.19934,-0.16002 0.43363,-0.24467 0.67884,-0.24467c0.52756,0 0.97867,0.37738 1.07205,0.89784c0.02621,0.14582 0.16165,0.24357 0.31075,0.22118c0.0841,-0.01311 0.16821,-0.02676 0.25559,-0.02676c0.9033,0 1.63839,0.73509 1.63839,1.63839s-0.73509,1.63839 -1.63839,1.63839l-4.09598,0c-0.15073,0 -0.27307,0.12233 -0.27307,0.27307s0.12233,0.27307 0.27307,0.27307l4.09598,0c1.20476,0 2.18452,-0.97976 2.18452,-2.18452s-0.97976,-2.18452 -2.18452,-2.18452c-0.03222,0 -0.06335,0.00109 -0.09503,0.00328c-0.2261,-0.64771 -0.8394,-1.09554 -1.54337,-1.09554c-0.1906,0 -0.37628,0.03331 -0.55214,0.0983c-0.09011,-1.27412 -1.15507,-2.28283 -2.45158,-2.28283c-0.99997,0 -1.89289,0.61549 -2.26808,1.51497c-0.37137,-0.27197 -0.82029,-0.42271 -1.28177,-0.42271c-1.20476,0 -2.18452,0.97976 -2.18452,2.18452c0,0.02621 0.00055,0.05188 0.00218,0.07755c-0.95191,0.24467 -1.64058,1.10701 -1.64058,2.10697c0,1.20476 0.97976,2.18452 2.18452,2.18452z" fill="#472b29"/>
    <path stroke="null" d="m36.86382,28.73809c0.08683,0 0.4593,0 0.54613,0c0.15073,0 0.27307,0.12233 0.27307,0.27307c0,0.15073 -0.12233,0.27307 -0.27307,0.27307c-0.08683,0 -0.4593,0 -0.54613,0c-0.15073,0 -0.27307,-0.12233 -0.27307,-0.27307c0,-0.15073 0.12233,-0.27307 0.27307,-0.27307z" fill="#472b29"/>
   </g>
  </g>
  <g stroke="null">
   <g stroke="#fff" fill="white" stroke-width="0.25mm" font-size="9pt" fill-rule="evenodd" stroke-linecap="round" id="svg_7">
    <path stroke="null" vector-effect="non-scaling-stroke" d="m134.15707,28.14444l-17.85988,0.62402a1.75479,1.75479 0 0 1 -0.59389,-0.09446q-0.58141,-0.20808 -0.84781,-0.87384a6.42052,6.42052 0 0 1 -0.05035,-0.15708q-0.06541,-0.21496 -0.07639,-0.32083a0.37506,0.37506 0 0 1 -0.00237,-0.03852q0,-0.18785 0.14912,-0.22658a0.34881,0.34881 0 0 1 0.08758,-0.01011q0.09963,0 0.28253,0.03852a4.18309,4.18309 0 0 1 0.11555,0.02604a1.8953,1.8953 0 0 0 0.18591,0.034q0.20937,0.02862 0.49405,0.03034a6.15348,6.15348 0 0 0 0.04088,0.00022l7.55279,-0.27973l0.04304,-10.1995l-4.43269,0.27973q-0.76475,0 -1.15035,-0.22465a0.88546,0.88546 0 0 1 -0.16225,-0.11964q-0.3615,-0.33482 -0.49814,-0.66964a1.0688,1.0688 0 0 1 -0.08284,-0.40626q0,-0.25822 0.2367,-0.25822q0.09963,0 0.28253,0.03852a4.18309,4.18309 0 0 1 0.11555,0.02604a1.97083,1.97083 0 0 0 0.20399,0.0368q0.21303,0.02776 0.49534,0.02776l10.39316,-0.66706q0.64554,-0.04304 0.91451,-0.12911a2.04205,2.04205 0 0 1 0.21733,-0.05724q0.14245,-0.02883 0.26682,-0.02883a0.57668,0.57668 0 0 1 0.15299,0.02281q0.14374,0.03981 0.32557,0.14869a2.47155,2.47155 0 0 1 0.07015,0.04368q0.33353,0.21518 0.59174,0.51643q0.21518,0.2509 0.25111,0.44219a0.40195,0.40195 0 0 1 0.0071,0.07424q0,0.39744 -0.65092,0.44929a2.24066,2.24066 0 0 1 -0.03766,0.00258l-5.74529,0.3658l-0.06455,10.22102l6.67056,-0.2367a8.75844,8.75844 0 0 0 0.32126,-0.02926q0.35246,-0.03938 0.57173,-0.09984a3.697,3.697 0 0 1 0.1644,-0.04153q0.19603,-0.04454 0.31976,-0.04454a0.43165,0.43165 0 0 1 0.10802,0.01571q0.10522,0.02754 0.24853,0.10329a2.70072,2.70072 0 0 1 0.14912,0.08543a2.72417,2.72417 0 0 1 0.54247,0.44004a3.07922,3.07922 0 0 1 0.07079,0.07639q0.24272,0.2707 0.27478,0.48458a0.43079,0.43079 0 0 1 0.00495,0.06412q0,0.36172 -0.42735,0.46156a1.47764,1.47764 0 0 1 -0.23971,0.03335zm-71.24586,-0.38732l0.02152,-4.30359l-2.19483,0.08607l0.02152,0.38732q0,0.64554 -0.47339,0.64554q-0.47339,0 -0.82844,-0.30125a0.96185,0.96185 0 0 1 -0.35268,-0.69998a1.20995,1.20995 0 0 1 -0.00237,-0.07467q0.03292,-0.26359 0.04067,-0.47662a3.47687,3.47687 0 0 0 0.00237,-0.12588q0,-0.2367 -0.04304,-0.40884a378.48639,378.48639 0 0 0 -0.11426,-1.27192q-0.23261,-2.53933 -0.33762,-3.2038q-0.06455,-0.30125 -0.21518,-0.57023q-0.11813,-0.21109 -0.14352,-0.34924a0.39012,0.39012 0 0 1 -0.0071,-0.07036a0.19517,0.19517 0 0 1 0.11878,-0.18635q0.08779,-0.04347 0.24014,-0.04949a1.28354,1.28354 0 0 1 0.04992,-0.00086q0.27608,0 1.47398,0.39808a37.12316,37.12316 0 0 1 0.03228,0.01076l2.75429,-0.17214l0.02152,-3.44287q0,-0.46048 -0.08801,-0.80154a1.91144,1.91144 0 0 0 -0.06262,-0.19904q-0.14718,-0.38904 -0.15041,-0.48007a0.11103,0.11103 0 0 1 -0.00022,-0.00409a0.35053,0.35053 0 0 1 0.02259,-0.13083q0.06821,-0.17042 0.34321,-0.17042a1.04835,1.04835 0 0 1 0.14395,0.0114q0.22422,0.03142 0.58765,0.14998q0.49491,0.16138 0.64554,0.37656a0.83597,0.83597 0 0 1 0.15041,0.46823a1.02232,1.02232 0 0 1 0.00022,0.02668l-0.04304,4.10992l3.3568,-0.21518q0.2225,0 0.54849,0.21539a2.82444,2.82444 0 0 1 0.1078,0.0751a1.81353,1.81353 0 0 1 0.16483,0.13449q0.16461,0.15278 0.21303,0.2963a0.3671,0.3671 0 0 1 0.02023,0.11792q0,0.22917 -0.08069,0.34751a0.31223,0.31223 0 0 1 -0.00538,0.00753q-0.0751,0.10329 -0.51041,3.09729a377.23362,377.23362 0 0 0 -0.13513,0.93732a8.47828,8.47828 0 0 1 0.20485,0.24229q0.30168,0.37226 0.37441,0.57259a0.33159,0.33159 0 0 1 0.02324,0.11039q0,0.32277 -0.29049,0.3658q-0.27414,0.04067 -3.6234,0.15794a785.86749,785.86749 0 0 1 -0.41121,0.0142l-0.04304,4.06689l2.60367,-0.55947q-0.47339,-0.79616 -0.77465,-1.23728q-0.30125,-0.44112 -0.30125,-0.63478a0.30706,0.30706 0 0 1 0.03529,-0.13621q0.05229,-0.10587 0.18269,-0.22508a1.75264,1.75264 0 0 1 0.09403,-0.07983q0.31201,-0.24746 0.59174,-0.24746a0.40755,0.40755 0 0 1 0.20786,0.06197q0.14159,0.08349 0.28856,0.2793a2.22452,2.22452 0 0 1 0.08457,0.12136q0.30125,0.46264 0.7854,1.19425q0.43316,0.65436 1.05567,1.68765a93.07602,93.07602 0 0 1 0.14933,0.24896q0.56979,0.9526 0.68922,1.38081a0.73269,0.73269 0 0 1 0.03163,0.19a0.72451,0.72451 0 0 1 -0.0581,0.29566q-0.07402,0.16784 -0.24294,0.28188a0.94076,0.94076 0 0 1 -0.09705,0.05724q-0.29759,0.15278 -0.48093,0.19129a0.5444,0.5444 0 0 1 -0.11082,0.01313a0.50546,0.50546 0 0 1 -0.37269,-0.16547q-0.11749,-0.12072 -0.20829,-0.32944a19.18754,19.18754 0 0 0 -0.52783,-1.12474a16.0414,16.0414 0 0 0 -0.33288,-0.61821a107.62214,107.62214 0 0 1 -3.05318,0.74129q-2.42572,0.54978 -4.45658,0.87255q-0.61649,0.09726 -0.97605,0.12136a3.16271,3.16271 0 0 1 -0.20743,0.00775a1.04943,1.04943 0 0 1 -0.61046,-0.19818a1.42104,1.42104 0 0 1 -0.14266,-0.11383a2.37192,2.37192 0 0 1 -0.26424,-0.27909q-0.14589,-0.18355 -0.23067,-0.37721a6.48981,6.48981 0 0 1 -0.05121,-0.12007q-0.09855,-0.23842 -0.09941,-0.30921a0.10113,0.10113 0 0 1 0,-0.00108q0,-0.22077 0.18785,-0.26725a0.47361,0.47361 0 0 1 0.1134,-0.01248a13.08613,13.08613 0 0 0 0.31481,0.04712q0.33977,0.04626 0.58012,0.05724a3.06717,3.06717 0 0 0 0.13793,0.00323q0.2367,0 1.64612,-0.19366q1.40942,-0.19366 2.29166,-0.34429zm79.98214,-1.80751l-5.09975,0.21518q-0.93173,0 -1.36789,-1.08709a3.38757,3.38757 0 0 1 -0.05229,-0.13944a0.3516,0.3516 0 0 1 -0.01227,-0.04949q-0.00925,-0.05207 -0.00925,-0.12265a0.24875,0.24875 0 0 1 0.01183,-0.08005q0.03766,-0.11082 0.1956,-0.11361a0.46543,0.46543 0 0 1 0.00775,0a0.48501,0.48501 0 0 1 0.06262,0.00473q0.10458,0.01377 0.28425,0.06821a4.18373,4.18373 0 0 1 0.00818,0.00237a1.32378,1.32378 0 0 0 0.1687,0.03809q0.22572,0.03723 0.57367,0.03723l3.63653,-0.15063l-0.30125,-10.32861q-0.04755,-0.58722 -0.14202,-0.90504a1.19338,1.19338 0 0 0 -0.07316,-0.19237a2.12167,2.12167 0 0 1 -0.07273,-0.16095q-0.068,-0.17021 -0.0766,-0.29781a0.53773,0.53773 0 0 1 -0.00129,-0.03615a0.23282,0.23282 0 0 1 0.13513,-0.22228q0.1007,-0.05164 0.27608,-0.05681a1.36165,1.36165 0 0 1 0.04067,-0.00065a0.89708,0.89708 0 0 1 0.18979,0.02582q0.3105,0.06972 0.90913,0.32922a18.15747,18.15747 0 0 1 0.40733,0.1829l7.87556,-0.51643a1.95318,1.95318 0 0 1 0.50567,0.06283a1.57554,1.57554 0 0 1 0.46264,0.20614a1.58867,1.58867 0 0 1 0.17408,0.13083q0.23476,0.20593 0.23476,0.41788q0,0.24057 -0.05573,0.36968a0.36215,0.36215 0 0 1 -0.01958,0.03916a1.46365,1.46365 0 0 0 -0.04174,0.0766q-0.0368,0.07252 -0.05229,0.12803a0.39873,0.39873 0 0 0 -0.0028,0.01054l-0.40884,10.30709l1.87206,-0.08607a10.48095,10.48095 0 0 0 0.35655,-0.02539q0.49319,-0.04433 0.71934,-0.12523a2.84897,2.84897 0 0 1 0.15923,-0.05207q0.15514,-0.04519 0.26596,-0.05358a0.63908,0.63908 0 0 1 0.0482,-0.00194a0.51944,0.51944 0 0 1 0.13685,0.02044q0.12975,0.0355 0.29415,0.13363a2.23916,2.23916 0 0 1 0.06391,0.03959q0.81768,0.53795 0.81768,0.96831q0,0.38732 -0.71009,0.43036l-11.12477,0.49491a0.03099,0.03099 0 0 0 -0.00839,0.00108q-0.00968,0.0028 -0.01227,0.01248a0.03163,0.03163 0 0 0 -0.00086,0.00796a0.15514,0.15514 0 0 0 0.0142,0.05078q0.05078,0.12394 0.28188,0.48544a19.12341,19.12341 0 0 0 0.11275,0.17386a2.00224,2.00224 0 0 1 0.10286,0.17085q0.09339,0.1758 0.1091,0.31287a0.47382,0.47382 0 0 1 0.00323,0.05423q0,0.19796 -0.18054,0.38087a1.08601,1.08601 0 0 1 -0.07768,0.07101a26.39131,26.39131 0 0 1 -1.25471,1.02296q-0.88826,0.6776 -1.69325,1.15035q-1.29366,0.7598 -2.17589,1.09828a6.96729,6.96729 0 0 1 -0.08349,0.03142a18.06667,18.06667 0 0 1 -0.31545,0.1134q-0.46931,0.16332 -0.69632,0.2055a0.73613,0.73613 0 0 1 -0.12868,0.01463a0.67459,0.67459 0 0 1 -0.12459,-0.01054q-0.20722,-0.03895 -0.21905,-0.22465a0.36215,0.36215 0 0 1 -0.00065,-0.02302q0,-0.27048 0.54354,-0.64188a4.03181,4.03181 0 0 1 0.03744,-0.02518q2.56063,-1.72143 4.00233,-3.3568a9.32523,9.32523 0 0 0 0.2268,-0.2651q0.32901,-0.40088 0.41228,-0.61929a0.36731,0.36731 0 0 0 0.02797,-0.12696a0.14331,0.14331 0 0 0 -0.00151,-0.02281q-0.00646,-0.03981 -0.0383,-0.04174a0.05444,0.05444 0 0 0 -0.00323,0q-0.04153,0 -0.12351,0.06047a0.8661,0.8661 0 0 0 -0.00559,0.00409zm-87.57797,2.73278l0.17214,-0.98982a9.78141,9.78141 0 0 0 0.07295,-0.63672q0.05939,-0.70127 0.07338,-1.70874a46.64915,46.64915 0 0 0 0.0043,-0.64554q0,-1.90563 -0.07983,-2.81433a9.37127,9.37127 0 0 0 -0.00624,-0.06907a15.33475,15.33475 0 0 1 -2.21097,2.45713a17.9197,17.9197 0 0 1 -0.88761,0.74904q-1.54929,1.22652 -2.0442,1.22652a0.43359,0.43359 0 0 1 -0.11921,-0.01485q-0.13363,-0.0383 -0.16913,-0.17473a0.44391,0.44391 0 0 1 -0.01291,-0.11168q0,-0.19969 0.37097,-0.58507a4.48692,4.48692 0 0 1 0.05939,-0.06047q2.71126,-2.58215 4.62635,-5.65922q-0.34429,-1.205 -0.6025,-1.85054q-1.2971,1.10365 -2.20236,1.58006a5.05607,5.05607 0 0 1 -0.19689,0.09834a19.19873,19.19873 0 0 1 -0.33288,0.15364q-0.6649,0.29824 -0.83984,0.29824a0.74129,0.74129 0 0 1 -0.12136,-0.00904q-0.21539,-0.03593 -0.22271,-0.21475a0.31244,0.31244 0 0 1 -0.00022,-0.01291q0,-0.30125 0.64554,-0.81768a20.40911,20.40911 0 0 0 1.9874,-1.67517a17.72948,17.72948 0 0 0 0.68083,-0.6918q-0.66706,-1.37715 -1.65688,-2.56063a1.81009,1.81009 0 0 1 -0.08414,-0.12158q-0.10953,-0.17408 -0.10953,-0.28726a0.27844,0.27844 0 0 1 0.0269,-0.11297q0.04196,-0.0936 0.14869,-0.20657a1.83892,1.83892 0 0 1 0.11491,-0.11082a1.40555,1.40555 0 0 1 0.16956,-0.13061q0.09511,-0.06133 0.18613,-0.09317a0.58292,0.58292 0 0 1 0.19302,-0.03443a0.42197,0.42197 0 0 1 0.16935,0.04002q0.14482,0.06369 0.32019,0.22938a2.78313,2.78313 0 0 1 0.156,0.16095a11.05677,11.05677 0 0 1 0.87793,1.18714a13.88832,13.88832 0 0 1 0.52073,0.87858a42.02581,42.02581 0 0 0 0.45209,-0.55731q0.89278,-1.12151 1.03265,-1.49765a2.97313,2.97313 0 0 0 0.12222,-0.41271q0.04992,-0.23347 0.04992,-0.448q0,-0.34579 0.25972,-0.3912a0.49082,0.49082 0 0 1 0.08457,-0.00689q0.16397,0 0.41293,0.14654a2.29682,2.29682 0 0 1 0.09274,0.05788a2.87264,2.87264 0 0 1 0.47856,0.39615a3.27847,3.27847 0 0 1 0.10243,0.10953a1.98654,1.98654 0 0 1 0.11448,0.13965q0.10587,0.14288 0.13922,0.25671a0.3516,0.3516 0 0 1 0.01528,0.09855a0.37355,0.37355 0 0 1 -0.0198,0.10759q-0.068,0.21776 -0.36753,0.66706a15.00811,15.00811 0 0 1 -1.30614,1.72316a18.38621,18.38621 0 0 1 -0.95324,1.00962a16.32845,16.32845 0 0 1 1.17531,3.89604q0.31029,1.75694 0.32965,3.75509a27.56016,27.56016 0 0 1 0.00129,0.26747a45.1642,45.1642 0 0 1 -0.02668,1.62138q-0.08026,2.21979 -0.40045,3.19305a2.45261,2.45261 0 0 1 -0.13234,0.32836a1.81159,1.81159 0 0 1 -0.24165,0.36408a1.06471,1.06471 0 0 1 -0.83425,0.38904q-0.59626,0 -1.81697,-1.01909a14.43251,14.43251 0 0 1 -0.20571,-0.17516a16.73256,16.73256 0 0 1 -0.46801,-0.42025q-0.90117,-0.84329 -0.90913,-1.17703a0.24767,0.24767 0 0 1 0,-0.00581a0.34429,0.34429 0 0 1 0.01872,-0.11835q0.05896,-0.16138 0.30405,-0.16138a0.46758,0.46758 0 0 1 0.11856,0.0198q0.25994,0.07122 0.84974,0.3998a14.29135,14.29135 0 0 0 0.4465,0.23906q0.46479,0.23777 0.8123,0.36344a15.37219,15.37219 0 0 0 0.17494,0.06219q0.34687,0.12072 0.4168,0.12072zm49.03936,-6.30475l1.63536,-0.08607l-0.04304,-8.73628a1.46257,1.46257 0 0 0 -0.03529,-0.32901a1.11979,1.11979 0 0 0 -0.13685,-0.33805a1.71433,1.71433 0 0 1 -0.08327,-0.15063q-0.07919,-0.16375 -0.08779,-0.292a0.45962,0.45962 0 0 1 -0.00108,-0.03077q0,-0.23282 0.26273,-0.25563a0.69567,0.69567 0 0 1 0.06004,-0.00258a1.65408,1.65408 0 0 1 0.12265,0.00516q0.1332,0.0099 0.31847,0.03938a7.23002,7.23002 0 0 1 0.11835,0.02001a3.05253,3.05253 0 0 1 0.40841,0.09726q0.44241,0.14159 0.60939,0.39442a0.61627,0.61627 0 0 1 0.10113,0.34751l-0.04304,4.28207l2.94796,-0.17214a2.6934,2.6934 0 0 0 0.27242,-0.02819q0.21174,-0.03357 0.37312,-0.10092a1.73951,1.73951 0 0 1 0.16999,-0.06133q0.08951,-0.02668 0.16978,-0.03809a0.8052,0.8052 0 0 1 0.11211,-0.00818a0.50309,0.50309 0 0 1 0.14331,0.02281q0.12653,0.03787 0.28059,0.13771a1.95383,1.95383 0 0 1 0.04949,0.03314q0.64554,0.45188 0.64554,0.94679q0,0.39744 -0.65092,0.44929a2.24066,2.24066 0 0 1 -0.03766,0.00258l-4.47573,0.21518l-0.04304,3.50742a917.74615,917.74615 0 0 0 0.66813,-0.03056q1.95404,-0.09038 2.27014,-0.11512a0.99112,0.99112 0 0 0 0.05272,-0.00495a1.30506,1.30506 0 0 1 0.42068,0.07295q0.18957,0.06434 0.38625,0.18527a1.37779,1.37779 0 0 1 0.18355,0.1332q0.23605,0.20571 0.23605,0.44779q0,0.30125 -0.07531,0.4196q-0.07531,0.11835 -0.7854,4.57256q0.53795,0.66706 0.53795,0.92527a0.6365,0.6365 0 0 1 -0.01356,0.13707q-0.0439,0.19904 -0.23046,0.24939a0.41508,0.41508 0 0 1 -0.00344,0.00086a1.20995,1.20995 0 0 1 -0.15385,0.01743q-0.73462,0.05638 -4.75718,0.16074a1064.1507,1064.1507 0 0 1 -1.46903,0.03701l0.04304,0.64554a1.08343,1.08343 0 0 1 -0.02496,0.24358q-0.07725,0.33396 -0.39507,0.39055a0.79702,0.79702 0 0 1 -0.13944,0.0114q-1.205,-0.27973 -1.205,-0.94679a8.5409,8.5409 0 0 0 0.06326,-0.91946a9.54234,9.54234 0 0 0 0.00129,-0.15644a4.35824,4.35824 0 0 0 -0.0043,-0.14783q-0.02625,-0.64511 -0.20958,-3.70689a1839.36014,1839.36014 0 0 0 -0.06584,-1.0944a10.93348,10.93348 0 0 0 -0.03077,-0.33095q-0.0596,-0.54311 -0.15213,-0.74495q-0.09102,-0.19861 -0.11211,-0.32083a0.39571,0.39571 0 0 1 -0.00624,-0.06649q0,-0.25004 0.31115,-0.29243a1.04319,1.04319 0 0 1 0.14073,-0.00882a1.0944,1.0944 0 0 1 0.17516,0.01743q0.28963,0.04863 0.83984,0.23132a18.29196,18.29196 0 0 1 0.34063,0.11706zm58.52877,1.74295l-0.02152,0.08607a1.94608,1.94608 0 0 1 -0.22766,0.38754q-0.61369,0.85577 -2.63422,2.68953a20.50874,20.50874 0 0 1 -0.50503,0.44607q-1.00187,0.85319 -1.35606,0.86631a0.2948,0.2948 0 0 1 -0.01097,0.00022a0.34429,0.34429 0 0 1 -0.11813,-0.01872q-0.1616,-0.05874 -0.1616,-0.30405q0,-0.20937 0.65221,-0.86717a12.04165,12.04165 0 0 1 0.03637,-0.03658a22.71067,22.71067 0 0 0 2.6041,-3.24792a28.13684,28.13684 0 0 0 1.37672,-2.30371l-2.32394,0.12911a0.88245,0.88245 0 0 1 -0.65307,-0.27414a1.11743,1.11743 0 0 1 -0.0355,-0.03787a2.88857,2.88857 0 0 1 -0.23153,-0.29243a2.11866,2.11866 0 0 1 -0.18807,-0.33159q-0.11534,-0.25735 -0.13556,-0.33181a0.09984,0.09984 0 0 1 -0.0043,-0.02324q0,-0.20313 0.173,-0.24638a0.44026,0.44026 0 0 1 0.10673,-0.01183l0.94679,0.12911l2.77581,-0.17214l0,-1.57081q0,-0.44219 -0.11168,-0.68664a0.72214,0.72214 0 0 0 -0.02819,-0.05573a1.37865,1.37865 0 0 1 -0.07811,-0.16009q-0.06176,-0.15235 -0.06176,-0.28102a0.27113,0.27113 0 0 1 0.02432,-0.11899q0.0553,-0.11448 0.23627,-0.13492a0.75313,0.75313 0 0 1 0.0837,-0.0043q0.21518,0 0.53795,0.08607q0.56269,0.13728 0.76647,0.36215a0.41228,0.41228 0 0 1 0.11577,0.28339l0,2.21635q0.88224,-0.04304 1.85054,-0.2367q0.64554,0 1.09741,0.64554q0.16311,0.21755 0.18893,0.37398a0.34794,0.34794 0 0 1 0.00473,0.05638q0,0.34429 -0.40884,0.40884l-2.73278,0.17214l0,0.79616l0.27973,0a0.38496,0.38496 0 0 1 0.1403,0.03895q0.37011,0.16074 1.40899,0.98315a15.54068,15.54068 0 0 1 0.43875,0.35956q0.81123,0.69202 0.85039,0.97885a0.20743,0.20743 0 0 1 0.00194,0.02797a0.82392,0.82392 0 0 1 -0.1829,0.516a1.18069,1.18069 0 0 1 -0.12911,0.1403q-0.24724,0.23024 -0.43359,0.27801a0.37656,0.37656 0 0 1 -0.0936,0.01248a0.28813,0.28813 0 0 1 -0.11598,-0.03228q-0.24229,-0.11297 -0.7613,-0.61993a12.3386,12.3386 0 0 1 -0.03723,-0.03637a20.0999,20.0999 0 0 0 -0.8562,-0.79724a16.38698,16.38698 0 0 0 -0.51019,-0.42928l-0.02152,6.41234a1.772,1.772 0 0 1 -0.01592,0.24875q-0.06886,0.48286 -0.43595,0.48286a0.98982,0.98982 0 0 1 -0.32879,-0.06047q-0.13728,-0.0482 -0.28339,-0.13492a2.47736,2.47736 0 0 1 -0.24853,-0.17042a1.04104,1.04104 0 0 1 -0.13212,-0.11921q-0.06455,-0.07036 -0.10092,-0.14288a0.41917,0.41917 0 0 1 -0.04669,-0.18979a4.08475,4.08475 0 0 1 0.03335,-0.51148a4.78925,4.78925 0 0 1 0.0312,-0.20937a2.39,2.39 0 0 0 0.02152,-0.22938q0.04304,-0.71203 0.04304,-3.22425a97.77295,97.77295 0 0 0 -0.00108,-0.45898q-0.00689,-1.49915 -0.06348,-1.49915zm-72.19265,5.07823l-17.21434,0.62402a1.75479,1.75479 0 0 1 -0.59389,-0.09446q-0.58141,-0.20808 -0.84781,-0.87384a6.42052,6.42052 0 0 1 -0.05035,-0.15708q-0.06541,-0.21496 -0.07639,-0.32083a0.37506,0.37506 0 0 1 -0.00237,-0.03852q0,-0.18785 0.14912,-0.22658a0.34881,0.34881 0 0 1 0.08758,-0.01011q0.09963,0 0.28253,0.03852a4.18309,4.18309 0 0 1 0.11555,0.02604a1.8953,1.8953 0 0 0 0.18591,0.034q0.20937,0.02862 0.49405,0.03034a6.15348,6.15348 0 0 0 0.04088,0.00022l8.49958,-0.32277a40.90515,40.90515 0 0 0 1.514,-3.4773q0.67588,-1.78663 1.07977,-3.44524a24.62576,24.62576 0 0 0 0.05293,-0.22142a17.78478,17.78478 0 0 0 0.06714,-0.30469q0.08586,-0.40863 0.10156,-0.60681a1.00446,1.00446 0 0 0 0.00344,-0.07833a1.29194,1.29194 0 0 0 -0.03787,-0.30426a1.64483,1.64483 0 0 0 -0.05896,-0.19065q-0.09683,-0.25822 -0.09683,-0.38732q0,-0.31287 0.34364,-0.32255a0.79164,0.79164 0 0 1 0.02216,-0.00022a1.25062,1.25062 0 0 1 0.1502,0.01033q0.21367,0.02604 0.53838,0.11878a3.9834,3.9834 0 0 1 0.45553,0.16978q0.48501,0.21884 0.6733,0.50911a0.71633,0.71633 0 0 1 0.11921,0.39701q-0.32277,1.35563 -1.35563,3.89475q-0.78562,1.93166 -1.52153,3.35271a23.27939,23.27939 0 0 1 -0.45812,0.84329l5.22886,-0.21518a8.75844,8.75844 0 0 0 0.32126,-0.02926q0.35246,-0.03938 0.57173,-0.09984a3.697,3.697 0 0 1 0.1644,-0.04153q0.19603,-0.04454 0.31976,-0.04454a0.43165,0.43165 0 0 1 0.10802,0.01571q0.10522,0.02754 0.24853,0.10329a2.70072,2.70072 0 0 1 0.14912,0.08543a2.72417,2.72417 0 0 1 0.54247,0.44004a3.07922,3.07922 0 0 1 0.07079,0.07639q0.24272,0.2707 0.27478,0.48458a0.43079,0.43079 0 0 1 0.00495,0.06412q0,0.36172 -0.42735,0.46156a1.47764,1.47764 0 0 1 -0.23971,0.03335zm-1.50626,-11.68424l-14.07273,0.77465l-0.49491,0a1.76985,1.76985 0 0 1 -0.34429,-0.07252q-0.20291,-0.06584 -0.35268,-0.18097a0.96702,0.96702 0 0 1 -0.14223,-0.13384q-0.22508,-0.25972 -0.31093,-0.51256a1.02985,1.02985 0 0 1 -0.03335,-0.12222a19.67965,19.67965 0 0 1 -0.01506,-0.07381q-0.04712,-0.23175 -0.04928,-0.27715a0.08306,0.08306 0 0 1 -0.00022,-0.00409a0.48179,0.48179 0 0 1 0.01033,-0.10479q0.03314,-0.14761 0.1715,-0.17064a0.33396,0.33396 0 0 1 0.05487,-0.0043a0.72107,0.72107 0 0 1 0.08887,0.00624q0.09446,0.01183 0.22314,0.04626a2.90363,2.90363 0 0 1 0.04304,0.01205q0.22594,0.06455 0.76389,0.06455q0.27973,0 5.91743,-0.30125l-0.04304,-3.22769q0,-0.43036 -0.3658,-0.98982q-0.06025,-0.09038 -0.07833,-0.17042a0.30061,0.30061 0 0 1 -0.00775,-0.06628a0.29243,0.29243 0 0 1 0.0355,-0.14804q0.08801,-0.15321 0.39485,-0.15321q0.30125,0 1.04362,0.20442a1.7281,1.7281 0 0 1 0.29824,0.10974q0.15278,0.07445 0.25284,0.17257a0.61864,0.61864 0 0 1 0.19129,0.46005l-0.02152,3.7226l5.05671,-0.27973q0.40798,-0.034 0.64123,-0.09489a1.256,1.256 0 0 0 0.11189,-0.03421a1.78685,1.78685 0 0 1 0.15514,-0.04906q0.07919,-0.02087 0.14955,-0.02991a0.81166,0.81166 0 0 1 0.10415,-0.0071a0.43509,0.43509 0 0 1 0.13083,0.02259q0.12136,0.03852 0.27543,0.14266a2.24905,2.24905 0 0 1 0.09941,0.07144a3.47493,3.47493 0 0 1 0.48652,0.44499a3.17626,3.17626 0 0 1 0.06219,0.07144a1.89724,1.89724 0 0 1 0.1007,0.12911q0.09296,0.13147 0.12244,0.23412a0.32298,0.32298 0 0 1 0.01356,0.08865a0.34859,0.34859 0 0 1 -0.20808,0.32535q-0.1644,0.08607 -0.45898,0.10501zm78.99232,10.73745l-0.15063,-8.06922q0,-0.75313 -0.2367,-1.205q-0.05229,-0.1573 -0.06219,-0.28619a0.76303,0.76303 0 0 1 -0.00237,-0.0581q0,-0.3105 0.35031,-0.34106a0.92764,0.92764 0 0 1 0.08005,-0.00323a0.79121,0.79121 0 0 1 0.16676,0.02259q0.36043,0.08091 1.16735,0.4508l5.31493,-0.32277a0.83619,0.83619 0 0 1 0.40131,0.1063q0.11792,0.06348 0.23304,0.16504a1.60631,1.60631 0 0 1 0.03271,0.02991a1.50131,1.50131 0 0 1 0.15428,0.16547q0.07101,0.08994 0.11211,0.17795a0.55818,0.55818 0 0 1 0.05638,0.23756a1.69131,1.69131 0 0 1 -0.00624,0.15084q-0.01399,0.1545 -0.05831,0.258a1.02296,1.02296 0 0 0 -0.0198,0.16483q-0.08241,1.02146 -0.34601,8.2702q0.48674,0.48674 0.55,0.74538a0.30512,0.30512 0 0 1 0.00947,0.0723q0,0.38453 -0.45446,0.49943a1.55101,1.55101 0 0 1 -0.23412,0.03852l-5.55163,0.15063l0.02152,0.64554a0.77443,0.77443 0 0 1 -0.02668,0.21281q-0.09296,0.32514 -0.51127,0.32514a0.80219,0.80219 0 0 1 -0.16052,-0.01786q-0.15493,-0.03163 -0.35031,-0.12029a2.70889,2.70889 0 0 1 -0.02711,-0.01248a1.37629,1.37629 0 0 1 -0.27435,-0.17064a0.77551,0.77551 0 0 1 -0.30663,-0.62553q0.12911,-1.0759 0.12911,-1.65688zm8.37047,-13.66389l-3.83019,0.25822a9.78722,9.78722 0 0 1 0.98531,0.76668a8.24416,8.24416 0 0 1 0.44564,0.42756a9.03473,9.03473 0 0 1 0.20851,0.2225q0.39851,0.44176 0.40475,0.601a0.1276,0.1276 0 0 1 0,0.00495a0.43014,0.43014 0 0 1 -0.02001,0.12158q-0.05207,0.1743 -0.2382,0.43789q-0.22099,0.3133 -0.44219,0.35827a0.37118,0.37118 0 0 1 -0.07424,0.00753a0.51557,0.51557 0 0 1 -0.22271,-0.05466q-0.16225,-0.07746 -0.33719,-0.26424a2.13286,2.13286 0 0 1 -0.04261,-0.04691a14.21474,14.21474 0 0 0 -1.43589,-1.37672a16.09821,16.09821 0 0 0 -0.37161,-0.30168a0.98057,0.98057 0 0 1 -0.1276,-0.1261q-0.06434,-0.07746 -0.09683,-0.15773a0.44219,0.44219 0 0 1 -0.03378,-0.16806a0.50653,0.50653 0 0 1 0.07617,-0.26446a0.70665,0.70665 0 0 1 0.07445,-0.10135l-1.11893,0.08607a19.75518,19.75518 0 0 1 -1.06299,1.34423q-0.55624,0.6408 -1.10882,1.14454a10.50764,10.50764 0 0 1 -0.43186,0.37312q-0.46156,0.3374 -0.68879,0.39636a0.34601,0.34601 0 0 1 -0.08586,0.01248a0.43359,0.43359 0 0 1 -0.11921,-0.01485q-0.13363,-0.0383 -0.16913,-0.17473a0.44391,0.44391 0 0 1 -0.01291,-0.11168q0,-0.21518 0.27973,-0.58098a21.19645,21.19645 0 0 0 2.64068,-4.1351a19.55162,19.55162 0 0 0 0.28576,-0.62036q0.17214,-0.30125 0.17214,-0.92527q0,-0.33202 0.25305,-0.37936a0.4962,0.4962 0 0 1 0.09124,-0.00796a0.43875,0.43875 0 0 1 0.08865,0.01076q0.13836,0.02905 0.37592,0.13728a4.73782,4.73782 0 0 1 0.05186,0.0241a3.40715,3.40715 0 0 1 0.36064,0.19237q0.56463,0.35096 0.56463,0.75442a0.46177,0.46177 0 0 1 -0.01485,0.11103q-0.02496,0.10006 -0.09145,0.22422a1.6898,1.6898 0 0 1 -0.02281,0.04131q-0.12911,0.22594 -0.26897,0.48415a85.47417,85.47417 0 0 0 -0.0482,0.0893q-0.09575,0.17709 -0.11318,0.21195a585.24422,585.24422 0 0 0 0.99606,-0.08177q3.26319,-0.27048 3.40435,-0.32707a0.93345,0.93345 0 0 1 0.16849,-0.05035a0.75119,0.75119 0 0 1 0.14352,-0.0142a0.41874,0.41874 0 0 1 0.09898,0.01334q0.09898,0.0241 0.2296,0.09274a2.04915,2.04915 0 0 1 0.08026,0.04454a2.33448,2.33448 0 0 1 0.29393,0.17731q0.33417,0.24036 0.40002,0.52138a0.61326,0.61326 0 0 1 0.01614,0.14051a0.37699,0.37699 0 0 1 -0.1971,0.34622q-0.07596,0.04454 -0.18118,0.07252a1.28376,1.28376 0 0 1 -0.18118,0.03314zm-14.18032,-2.30242l0,-0.21518a0.84329,0.84329 0 0 1 0.01313,-0.15579q0.04885,-0.25886 0.28102,-0.27371a0.45252,0.45252 0 0 1 0.02862,-0.00086a0.35892,0.35892 0 0 1 0.0723,0.00882q0.11491,0.02432 0.3176,0.11448a4.61344,4.61344 0 0 1 0.08349,0.03809a3.57886,3.57886 0 0 1 0.58615,0.34838a3.99932,3.99932 0 0 1 0.08091,0.06047a1.02232,1.02232 0 0 1 0.17021,0.16203q0.1091,0.1332 0.1403,0.28447a0.61283,0.61283 0 0 1 0.01227,0.12373a0.54268,0.54268 0 0 1 -0.03206,0.16526q-0.0893,0.27048 -0.42778,0.76432a10.79856,10.79856 0 0 1 -0.16418,0.23239a246.50273,246.50273 0 0 0 0.77163,-0.05702q2.53955,-0.19172 2.82186,-0.27651a4.85186,4.85186 0 0 1 0.14073,-0.04002q0.19689,-0.05272 0.2963,-0.05659a0.38926,0.38926 0 0 1 0.01485,-0.00022a0.33181,0.33181 0 0 1 0.09898,0.017q0.09317,0.02948 0.21453,0.10931a1.91424,1.91424 0 0 1 0.09532,0.06735q0.70299,0.46866 0.71009,0.83188a0.37872,0.37872 0 0 1 0,0.00732a0.34924,0.34924 0 0 1 -0.19861,0.32083q-0.14503,0.08091 -0.39615,0.10867a2.00483,2.00483 0 0 1 -0.00775,0.00086l-3.37831,0.2367a14.40539,14.40539 0 0 1 0.59239,0.42261q1.15056,0.86975 1.15056,1.34186a0.50632,0.50632 0 0 1 -0.05143,0.21518q-0.07058,0.15106 -0.23777,0.31201a1.86109,1.86109 0 0 1 -0.02281,0.02152q-0.24724,0.23024 -0.43359,0.27801a0.37656,0.37656 0 0 1 -0.0936,0.01248a0.31696,0.31696 0 0 1 -0.13341,-0.03593q-0.18828,-0.08973 -0.48286,-0.40411a5.83308,5.83308 0 0 1 -0.13685,-0.1517q-0.51643,-0.59174 -1.0221,-0.96831a3.24232,3.24232 0 0 1 -0.19086,-0.15256q-0.31481,-0.27392 -0.31481,-0.4607a0.5954,0.5954 0 0 1 0.03142,-0.19624a0.52052,0.52052 0 0 1 0.09769,-0.16956l-0.94679,0.08607q-1.57081,1.97965 -3.18465,3.03403a8.87916,8.87916 0 0 1 -0.22615,0.14632q-0.34579,0.21561 -0.51966,0.26747a0.33654,0.33654 0 0 1 -0.09339,0.01657a0.43359,0.43359 0 0 1 -0.11921,-0.01485q-0.13363,-0.0383 -0.16913,-0.17473a0.44391,0.44391 0 0 1 -0.01291,-0.11168a0.2679,0.2679 0 0 1 0.02582,-0.10221q0.06929,-0.16117 0.32514,-0.44929a7.0071,7.0071 0 0 1 0.18699,-0.20162a19.04487,19.04487 0 0 0 1.11893,-1.27515q0.55452,-0.68814 1.11829,-1.49743a32.31089,32.31089 0 0 0 0.17279,-0.25068a20.22621,20.22621 0 0 0 0.4168,-0.63413q0.63392,-1.0079 0.77163,-1.55897a1.13313,1.13313 0 0 0 0.03809,-0.2707zm-67.73844,15.57898q-0.38732,0 -0.69933,-0.25822a2.64864,2.64864 0 0 1 -0.40733,-0.41723a2.36869,2.36869 0 0 1 -0.1091,-0.15299a2.07713,2.07713 0 0 1 -0.09425,-0.1573q-0.08543,-0.15988 -0.10458,-0.28124a0.42993,0.42993 0 0 1 -0.00559,-0.06714a0.21539,0.21539 0 0 1 0.12222,-0.20528q0.09124,-0.04755 0.25068,-0.0525a1.20931,1.20931 0 0 1 0.03593,-0.00043q1.25751,-0.17752 2.85048,-0.54828a55.46569,55.46569 0 0 0 1.51766,-0.37699a71.56175,71.56175 0 0 0 0.55344,-1.7365q0.72085,-2.37515 0.84221,-3.54228a4.13553,4.13553 0 0 0 0.02453,-0.42347q0,-0.31352 -0.0609,-0.49513a0.71741,0.71741 0 0 0 -0.00366,-0.01054q-0.06455,-0.1829 -0.06455,-0.26897a0.41185,0.41185 0 0 1 0.0241,-0.14654q0.07488,-0.19775 0.38474,-0.19775a0.96766,0.96766 0 0 1 0.18957,0.02109q0.23777,0.04777 0.57431,0.20485q0.48415,0.22594 0.63478,0.38732a0.87664,0.87664 0 0 1 0.0695,0.08349q0.08112,0.11211 0.08112,0.207q0,0.09167 -0.1248,0.61972a34.53111,34.53111 0 0 1 -0.04734,0.19796a20.83624,20.83624 0 0 1 -0.56076,1.95039q-0.33181,0.98229 -0.78239,2.04485a36.02058,36.02058 0 0 1 -0.31373,0.71719a75.99014,75.99014 0 0 0 0.72064,-0.21841q0.28468,-0.08779 0.5429,-0.17042a42.1646,42.1646 0 0 0 0.49018,-0.15988q0.74237,-0.24746 1.04362,-0.24746q0.39722,0 0.40863,0.26402a0.36688,0.36688 0 0 1 0.00022,0.01571q0,0.36559 -1.57102,1.08536a19.48535,19.48535 0 0 1 -0.19345,0.08736q-1.76447,0.7854 -3.81943,1.51701a64.09503,64.09503 0 0 1 -0.71052,0.24875q-1.40899,0.48286 -1.68873,0.48286zm7.42369,-9.79066l-6.97181,0.45188q-0.61864,0 -0.83533,-0.14804a0.3899,0.3899 0 0 1 -0.00387,-0.00258a3.67698,3.67698 0 0 1 -0.30104,-0.30362q-0.38754,-0.44391 -0.38754,-0.81531q0,-0.27973 0.25822,-0.27973a0.83726,0.83726 0 0 1 0.08908,0.00516q0.09231,0.01011 0.21453,0.03873a2.94774,2.94774 0 0 1 0.04067,0.0099q0.16698,0.04174 0.47598,0.051a6.3252,6.3252 0 0 0 0.19108,0.0028a2.98819,2.98819 0 0 0 0.10027,-0.00237q0.45661,-0.01635 2.39581,-0.14826l-0.04304,-2.34545q0,-0.32277 -0.1829,-0.62402q-0.16676,-0.27457 -0.1814,-0.40604a0.21755,0.21755 0 0 1 -0.00151,-0.02432a0.26768,0.26768 0 0 1 0.15988,-0.25585q0.11899,-0.0596 0.32664,-0.06606a1.66484,1.66484 0 0 1 0.05143,-0.00086q0.40884,0 0.92527,0.25822a1.41115,1.41115 0 0 1 0.22594,0.13858q0.11813,0.09016 0.18807,0.19431a0.58615,0.58615 0 0 1 0.10243,0.33417l-0.04304,2.73278a114.61654,114.61654 0 0 0 0.46758,-0.03637q1.54025,-0.12373 1.738,-0.18957q0.14718,-0.04906 0.2623,-0.06606a0.78153,0.78153 0 0 1 0.11426,-0.00925q0.15063,0 0.45188,0.17214q0.77465,0.45188 0.77465,0.90375a0.34924,0.34924 0 0 1 -0.19861,0.32083q-0.14503,0.08091 -0.39615,0.10867a2.00483,2.00483 0 0 1 -0.00775,0.00086zm-22.48624,9.18816q-0.3658,0 -0.48415,-0.17214a0.76862,0.76862 0 0 1 -0.05229,-0.09403q-0.13061,-0.26768 -0.41035,-1.08945a24.31418,24.31418 0 0 0 -0.67265,-1.86496q-0.66404,-1.64246 -1.6728,-3.57908a2.25809,2.25809 0 0 1 -0.09038,-0.20334q-0.08048,-0.21088 -0.08177,-0.37226a0.65608,0.65608 0 0 1 0,-0.00538q0,-0.27973 0.39808,-0.48415q0.34192,-0.17559 0.56485,-0.20033a0.63435,0.63435 0 0 1 0.06993,-0.00409a0.3587,0.3587 0 0 1 0.18635,0.05702q0.12566,0.07596 0.25606,0.25284a2.11328,2.11328 0 0 1 0.09554,0.14202a37.16857,37.16857 0 0 1 2.16772,4.30014a32.48067,32.48067 0 0 1 0.58658,1.48818a10.86462,10.86462 0 0 1 0.09231,0.27973q0.12007,0.38302 0.1403,0.57539a0.67695,0.67695 0 0 1 0.00409,0.07015a0.61305,0.61305 0 0 1 -0.10996,0.34665q-0.05659,0.08478 -0.14266,0.16461a1.18155,1.18155 0 0 1 -0.00559,0.00516a2.94925,2.94925 0 0 1 -0.25219,0.17838q-0.26725,0.16719 -0.48243,0.20055a0.6804,0.6804 0 0 1 -0.10458,0.00839zm24.87473,-3.44287l0.25822,4.17448l4.64787,-0.15063l0.51643,-4.23903l-5.42252,0.21518zm38.15129,-9.48941l0.04304,1.52777l7.33761,-0.49491l0.04304,-1.50626l-7.42369,0.47339zm0.08607,2.8834l0.04304,1.48474l7.16547,-0.43036l0.04304,-1.50626l-7.25154,0.45188zm11.05979,13.7633a2.42313,2.42313 0 0 0 0.1403,-0.14245a1.8273,1.8273 0 0 0 0.11964,-0.14482q0.21389,-0.28963 0.21389,-0.56528a0.54182,0.54182 0 0 0 -0.00624,-0.08177q-0.03314,-0.21798 -0.24272,-0.45295a2.11844,2.11844 0 0 0 -0.20291,-0.19689a51.17114,51.17114 0 0 0 -1.10258,-0.87169q-1.75629,-1.34874 -3.22253,-2.20537a17.4887,17.4887 0 0 0 -0.21066,-0.12115q-0.45209,-0.2552 -0.63198,-0.31352a0.29071,0.29071 0 0 0 -0.08263,-0.01721a0.21131,0.21131 0 0 0 -0.01485,0.00065q-0.14675,0.01033 -0.34687,0.22271a2.23399,2.23399 0 0 0 -0.12244,0.14245a2.49802,2.49802 0 0 0 -0.05423,0.07079q-0.14611,0.19818 -0.20184,0.36301a0.5954,0.5954 0 0 0 -0.03443,0.19022q0,0.30125 0.38732,0.53795q1.46322,0.90375 3.14162,2.2809q0.8392,0.64554 1.34487,1.08666q0.3813,0.33267 0.59734,0.41444a0.35655,0.35655 0 0 0 0.12351,0.02668a0.35074,0.35074 0 0 0 0.14008,-0.03292q0.1205,-0.05293 0.26833,-0.19043zm-10.90916,-8.1256l0.04304,1.65688l6.82118,-0.30125l0.06455,-1.69992l-6.92877,0.34429zm-0.08607,-2.77581l0.04304,1.39867l7.01485,-0.32277l0.04304,-1.50626l-7.10092,0.43036zm-46.37114,4.13144a1.46257,1.46257 0 0 0 0.03787,0.14245q0.14826,0.46005 0.54311,0.46005a0.84071,0.84071 0 0 0 0.05917,-0.00215q0.15342,-0.01076 0.36451,-0.07574a3.5085,3.5085 0 0 0 0.21109,-0.07273a1.13916,1.13916 0 0 0 0.03701,-0.01463q0.36107,-0.15127 0.36107,-0.45876q0,-0.2367 -0.40884,-1.6246a14.02302,14.02302 0 0 0 -0.12523,-0.4026q-0.40325,-1.23083 -1.12281,-2.70674a1.28032,1.28032 0 0 0 -0.08629,-0.16203q-0.05659,-0.08908 -0.12072,-0.14869a0.41314,0.41314 0 0 0 -0.28791,-0.11964a0.59777,0.59777 0 0 0 -0.10156,0.01011q-0.16483,0.02883 -0.43638,0.14051a1.06363,1.06363 0 0 0 -0.08069,0.03701q-0.28511,0.14632 -0.28511,0.39335a0.87879,0.87879 0 0 0 0.02066,0.18828a1.0363,1.0363 0 0 0 0.08693,0.24208q0.77465,1.74295 1.33411,4.17448zm73.24703,1.97965l0.04304,2.10876l4.26055,-0.12911l0.06455,-2.15179l-4.36814,0.17214zm-0.10759,-6.08957l0.04304,1.6784l4.54028,-0.2367l0.04304,-1.72143l-4.62635,0.27973zm0.06455,2.99099l0.02152,1.78599l4.41118,-0.19366l0.04304,-1.80751l-4.47573,0.21518zm-105.05053,-4.77698l-0.04304,3.74412l2.30242,-0.08607l0.30125,-3.83019l-2.56063,0.17214zm-4.21751,0.2367l0.30125,3.65805l2.32394,-0.10759l0.02152,-3.7226l-2.64671,0.17214z"/>
   </g>
  </g>
 </g>

</svg>