<svg width="520" height="520" xmlns="http://www.w3.org/2000/svg" version="1">
 <g id="Layer_1">
  <title>Layer 1</title>
  <ellipse stroke="#000" ry="259.99308" rx="259.99308" id="svg_1" cy="260.00001" cx="260.00002" stroke-width="0" fill="#ffffaa"/>
  <g stroke="null">
   <path stroke="null" d="m394.84956,118.77083c-0.28231,-2.05058 -2.07867,-3.18542 -3.56324,-3.31042c-1.48176,-0.1236 -32.84159,-2.44806 -32.84159,-2.44806s-21.77969,-21.62239 -24.17017,-24.01567c-2.39188,-2.39188 -7.06327,-1.66434 -8.87649,-1.13063c-0.26686,0.07865 -4.75847,1.4649 -12.18831,3.76408c-7.27535,-20.93559 -20.11535,-40.17453 -42.70404,-40.17453c-0.6236,0 -1.26546,0.02528 -1.90732,0.0618c-6.42422,-8.49586 -14.38215,-12.18691 -21.25581,-12.18691c-52.61987,0 -77.75914,65.7801 -85.64124,99.20737c-20.44682,6.33573 -34.97223,10.83999 -36.82759,11.42286c-11.41303,3.58009 -11.77398,3.93964 -13.27259,14.69396c-1.12782,8.14193 -30.99045,239.08366 -30.99045,239.08366l232.69596,43.59872l126.08262,-27.27553s-44.26024,-299.24011 -44.53833,-301.29069l-0.0014,0zm-94.50087,-23.16313l-19.68979,6.09416c0.00702,-1.38765 0.01405,-2.75283 0.01405,-4.24583c0,-13.01136 -1.8062,-23.48758 -4.70369,-31.79243c11.63915,1.46069 19.39063,14.70379 24.37944,29.9441zm-38.81777,-27.36402c3.23598,8.10822 5.33994,19.74456 5.33994,35.44696c0,0.80338 -0.00702,1.53794 -0.01405,2.28092c-12.80489,3.96633 -26.71935,8.27255 -40.6647,12.59281c7.83013,-30.21938 22.50723,-44.81502 35.33881,-50.32069zm-15.63357,-14.79929c2.27109,0 4.55903,0.77107 6.74866,2.27811c-16.86392,7.93547 -34.93993,27.92161 -42.57343,67.83349l-32.14355,9.95515c8.94109,-30.4427 30.17163,-80.06675 67.96692,-80.06675l0.0014,0z" fill="#95BF46"/>
   <path stroke="null" d="m391.28633,115.46041c-1.48176,-0.1236 -32.84159,-2.44806 -32.84159,-2.44806s-21.77969,-21.62239 -24.17017,-24.01567c-0.89467,-0.89046 -2.10114,-1.34692 -3.36239,-1.54355l-17.59426,359.88112l126.07138,-27.27272s-44.26164,-299.24011 -44.53974,-301.29069c-0.28231,-2.05058 -2.07867,-3.18542 -3.56324,-3.31042" fill="#5E8E3E"/>
   <path stroke="null" d="m270.50572,185.12678l-15.54649,46.24481s-13.62091,-7.26973 -30.31769,-7.26973c-24.47775,0 -25.70951,15.3611 -25.70951,19.23192c0,21.12098 55.05669,29.21375 55.05669,78.68612c0,38.92311 -24.68702,63.98654 -57.97385,63.98654c-39.94419,0 -60.37134,-24.85978 -60.37134,-24.85978l10.69532,-35.3374s20.99738,18.02685 38.71524,18.02685c11.57735,0 16.28667,-9.11525 16.28667,-15.77543c0,-27.55082 -45.16895,-28.77976 -45.16895,-74.05124c0,-38.10288 27.34857,-74.97541 82.55413,-74.97541c21.27126,0 31.77979,6.09275 31.77979,6.09275" fill="#FFF"/>
  </g>
 </g>

</svg>