<svg width="178" height="40" xmlns="http://www.w3.org/2000/svg" version="1">
 <g id="Layer_1">
  <title>Layer 1</title>
  <g stroke="null">
   <path stroke="null" d="m44.90013,23.66454c0.61986,-1.17691 0.97484,-2.51493 0.97484,-3.9376c0,-3.61593 -2.27136,-6.69392 -5.46185,-7.90688c0,-0.00382 0.00055,-0.00765 0.00055,-0.01201c0,-6.33402 -5.13472,-11.46874 -11.46874,-11.46874c-5.34334,0 -9.81997,3.65962 -11.09355,8.60538c-0.80609,-0.26487 -1.66515,-0.41342 -2.55971,-0.41342c-4.20084,0 -7.65839,3.16373 -8.13188,7.23732c-2.84206,0.60129 -4.97525,3.12223 -4.97525,6.14288c0,3.46848 2.81203,6.2805 6.2805,6.2805c0.09667,0 0.19224,-0.00655 0.28726,-0.01201c-0.00218,0.09557 -0.0142,0.18896 -0.0142,0.28508c0,6.18329 5.01239,11.19568 11.19568,11.19568c3.51544,0 6.64914,-1.6231 8.70205,-4.15824c1.18947,1.21514 2.84316,1.97372 4.67815,1.97372c2.53951,0 4.73714,-1.44725 5.82503,-3.55968c0.57453,0.18295 1.18565,0.2829 1.8208,0.2829c3.31774,0 6.00744,-2.68969 6.00744,-6.00744c0,-1.80824 -0.80281,-3.42588 -2.0671,-4.52742z" fill="#c7ede6"/>
   <path stroke="null" d="m15.56472,16.45015l0,0.27307l1.63839,0l0,-0.27307c0,0 2.31669,0 3.00372,0c1.35713,0 2.45759,-1.10045 2.45759,-2.45759c0,-1.27412 -0.9732,-2.30959 -2.21456,-2.43301c0.01201,-0.09885 0.03004,-0.19551 0.03004,-0.29764c0,-1.35713 -1.10045,-2.45759 -2.45759,-2.45759c-0.78534,0 -1.47619,0.37465 -1.9262,0.94808c-0.07646,-1.4396 -1.25719,-2.58647 -2.71591,-2.58647c-1.50787,0 -2.73065,1.22279 -2.73065,2.73065c0,0.24357 0.04205,0.47513 0.10213,0.70014c-0.35062,-0.42434 -0.87436,-0.70014 -1.46745,-0.70014c-0.97266,0 -1.76619,0.72908 -1.88688,1.66843c-0.09885,-0.01201 -0.19551,-0.03004 -0.29764,-0.03004c-1.35713,0 -2.45759,1.10045 -2.45759,2.45759s1.10045,2.45759 2.45759,2.45759s5.18824,0 5.18824,0l3.27678,0z" fill="#fdfcef"/>
   <path stroke="null" d="m13.3802,6.89287c-1.65641,0 -3.00372,1.3473 -3.00372,3.00372c0,0.00874 0,0.01693 0,0.02567c-0.32877,-0.19388 -0.70451,-0.29873 -1.09226,-0.29873c-0.99997,0 -1.86285,0.68867 -2.10697,1.64112c-0.02567,-0.00164 -0.05134,-0.00273 -0.07755,-0.00273c-1.50568,0 -2.73065,1.22497 -2.73065,2.73065s1.22497,2.73065 2.73065,2.73065l8.46502,0c0.15073,0 0.27307,-0.12233 0.27307,-0.27307s-0.12233,-0.27307 -0.27307,-0.27307l-8.46502,0c-1.20476,0 -2.18452,-0.97976 -2.18452,-2.18452s0.97976,-2.18452 2.18452,-2.18452c0.0639,0 0.12561,0.00928 0.18732,0.01748l0.077,0.01038c0.01147,0.00164 0.02239,0.00218 0.03386,0.00218c0.13435,0 0.25231,-0.10103 0.27033,-0.23866c0.10431,-0.81537 0.79899,-1.42977 1.616,-1.42977c0.48333,0 0.94098,0.219 1.25665,0.60074c0.05352,0.06444 0.13162,0.0994 0.21081,0.0994c0.0426,0 0.0852,-0.00983 0.12452,-0.03058c0.11414,-0.05844 0.17149,-0.18896 0.13872,-0.31293c-0.06281,-0.23757 -0.0923,-0.43745 -0.0923,-0.62969c0,-1.35495 1.10264,-2.45759 2.45759,-2.45759c1.30034,0 2.37403,1.02236 2.44339,2.32815c0.00601,0.1136 0.08192,0.21135 0.1906,0.24576c0.02731,0.00874 0.05516,0.01311 0.08301,0.01311c0.08192,0 0.16165,-0.03768 0.21408,-0.10486c0.42107,-0.5363 1.0442,-0.84377 1.71103,-0.84377c1.20476,0 2.18452,0.97976 2.18452,2.18452c0,0.0639 -0.00928,0.12561 -0.01748,0.18732l-0.01038,0.077c-0.00874,0.07318 0.01201,0.14636 0.05789,0.20371c0.04587,0.05734 0.11305,0.09393 0.18568,0.10103c1.12284,0.11196 1.9688,1.04147 1.9688,2.16159c0,1.20476 -0.97976,2.18452 -2.18452,2.18452l-3.00372,0c-0.15073,0 -0.27307,0.12233 -0.27307,0.27307s0.12233,0.27307 0.27307,0.27307l3.00372,0c1.50568,0 2.73065,-1.22497 2.73065,-2.73065c0,-1.30908 -0.92241,-2.41007 -2.18616,-2.66348c0.00109,-0.02239 0.00164,-0.04478 0.00164,-0.06717c0,-1.50568 -1.22497,-2.73065 -2.73065,-2.73065c-0.64225,0 -1.25228,0.22719 -1.73833,0.6357c-0.32659,-1.3129 -1.50841,-2.27409 -2.90378,-2.27409l0,0z" fill="#472b29"/>
   <path stroke="null" d="m12.561,10.71578c-0.76622,0 -1.42485,0.54558 -1.59088,1.27849c-0.20043,-0.12124 -0.42926,-0.18623 -0.66191,-0.18623c-0.65645,0 -1.2004,0.48988 -1.28505,1.1294c-0.11086,-0.02512 -0.21627,-0.03714 -0.31949,-0.03714c-0.83503,0 -1.53517,0.65536 -1.59361,1.49203c-0.00492,0.07537 0.05188,0.1409 0.1267,0.14636c0.00328,0 0.00655,0 0.00983,0c0.071,0 0.13107,-0.05516 0.13599,-0.1267c0.04861,-0.69413 0.6286,-1.23862 1.32109,-1.23862c0.12506,0 0.25668,0.02294 0.40304,0.06936c0.01201,0.00382 0.02458,0.00546 0.03659,0.00546c0.03004,0 0.06007,-0.01092 0.0852,-0.02949c0.03495,-0.02512 0.05571,-0.0699 0.05571,-0.1136c0,-0.5647 0.4593,-1.02399 1.02399,-1.02399c0.24412,0 0.48333,0.09175 0.67229,0.25832c0.02567,0.02239 0.05789,0.03441 0.09011,0.03441c0.01748,0 0.03441,-0.00328 0.05079,-0.01038c0.04806,-0.01911 0.08083,-0.0639 0.08465,-0.11578c0.0568,-0.70615 0.65153,-1.25883 1.35495,-1.25883c0.1136,0 0.23211,0.01857 0.37246,0.05844c0.01256,0.00382 0.02567,0.00546 0.03823,0.00546c0.05953,0 0.11305,-0.03987 0.13053,-0.0994c0.02075,-0.07264 -0.0213,-0.148 -0.09393,-0.16875c-0.16493,-0.04697 -0.30747,-0.06881 -0.44728,-0.06881l0,0z" fill="#472b29"/>
   <path stroke="null" d="m20.14294,11.53498c-0.72417,0 -1.3697,0.48988 -1.56958,1.19166c-0.02075,0.07264 0.0213,0.148 0.09393,0.16875c0.01311,0.00328 0.02567,0.00492 0.03768,0.00492c0.05953,0 0.11414,-0.03932 0.13107,-0.0994c0.16657,-0.58436 0.70396,-0.99287 1.30689,-0.99287c0.0639,0 0.12561,0.00765 0.18678,0.01584c0.00655,0.00109 0.01256,0.00164 0.01911,0.00164c0.06608,0 0.12506,-0.05024 0.13435,-0.11851c0.01038,-0.07482 -0.04205,-0.14363 -0.11687,-0.15346c-0.07318,-0.00983 -0.14746,-0.01857 -0.22337,-0.01857l0,0z" fill="#472b29"/>
   <path stroke="null" d="m5.73437,22.73065l-5.46131,0c-0.15073,0 -0.27307,-0.12233 -0.27307,-0.27307s0.12233,-0.27307 0.27307,-0.27307l5.46131,0c0.15073,0 0.27307,0.12233 0.27307,0.27307s-0.12179,0.27307 -0.27307,0.27307z" fill="#fff"/>
   <path stroke="null" d="m7.37276,22.73065l-0.54613,0c-0.15073,0 -0.27307,-0.12233 -0.27307,-0.27307s0.12233,-0.27307 0.27307,-0.27307l0.54613,0c0.15073,0 0.27307,0.12233 0.27307,0.27307s-0.12179,0.27307 -0.27307,0.27307z" fill="#fff"/>
   <path stroke="null" d="m10.0985,23.82292l-4.91026,0c-0.15073,0 -0.27307,-0.12233 -0.27307,-0.27307s0.12233,-0.27307 0.27307,-0.27307l4.91026,0c0.15073,0 0.27307,0.12233 0.27307,0.27307s-0.12233,0.27307 -0.27307,0.27307z" fill="#fff"/>
   <path stroke="null" d="m4.09598,23.82292l-0.54613,0c-0.15073,0 -0.27307,-0.12233 -0.27307,-0.27307s0.12233,-0.27307 0.27307,-0.27307l0.54613,0c0.15073,0 0.27307,0.12233 0.27307,0.27307s-0.12179,0.27307 -0.27307,0.27307z" fill="#fff"/>
   <path stroke="null" d="m2.45759,23.82292l-1.09226,0c-0.15073,0 -0.27307,-0.12233 -0.27307,-0.27307s0.12233,-0.27307 0.27307,-0.27307l1.09226,0c0.15073,0 0.27307,0.12233 0.27307,0.27307s-0.12179,0.27307 -0.27307,0.27307z" fill="#fff"/>
   <path stroke="null" d="m5.73437,24.91518l-1.09226,0c-0.15073,0 -0.27307,-0.12233 -0.27307,-0.27307s0.12233,-0.27307 0.27307,-0.27307l1.09226,0c0.15073,0 0.27307,0.12233 0.27307,0.27307s-0.12233,0.27307 -0.27307,0.27307z" fill="#fff"/>
   <path stroke="null" d="m7.37276,20c-0.09667,0 -0.44947,0 -0.54613,0c-0.15073,0 -0.27307,0.12233 -0.27307,0.27307c0,0.15073 0.12233,0.27307 0.27307,0.27307c0.09667,0 0.44947,0 0.54613,0c0.15073,0 0.27307,-0.12233 0.27307,-0.27307c0,-0.15073 -0.12233,-0.27307 -0.27307,-0.27307z" fill="#fff"/>
   <path stroke="null" d="m7.37276,21.09226c-0.09667,0 -2.63399,0 -2.73065,0c-0.15073,0 -0.27307,0.12233 -0.27307,0.27307c0,0.15073 0.12233,0.27307 0.27307,0.27307c0.09667,0 2.63399,0 2.73065,0c0.15073,0 0.27307,-0.12233 0.27307,-0.27307c0,-0.15073 -0.12233,-0.27307 -0.27307,-0.27307z" fill="#fff"/>
   <path stroke="null" d="m10.10342,22.18452c-0.09667,0 -1.54173,0 -1.63839,0c-0.15073,0 -0.27307,0.12233 -0.27307,0.27307c0,0.15073 0.12233,0.27307 0.27307,0.27307c0.09667,0 1.54173,0 1.63839,0c0.15073,0 0.27307,-0.12233 0.27307,-0.27307c0,-0.15073 -0.12233,-0.27307 -0.27307,-0.27307z" fill="#fff"/>
   <path stroke="null" d="m43.96352,17.81548l-5.46131,0c-0.15073,0 -0.27307,-0.12233 -0.27307,-0.27307s0.12233,-0.27307 0.27307,-0.27307l5.46131,0c0.15073,0 0.27307,0.12233 0.27307,0.27307s-0.12233,0.27307 -0.27307,0.27307z" fill="#fff"/>
   <path stroke="null" d="m46.14804,17.81548l-1.09226,0c-0.15073,0 -0.27307,-0.12233 -0.27307,-0.27307s0.12233,-0.27307 0.27307,-0.27307l1.09226,0c0.15073,0 0.27307,0.12233 0.27307,0.27307s-0.12233,0.27307 -0.27307,0.27307z" fill="#fff"/>
   <path stroke="null" d="m48.87869,18.90774l-5.46131,0c-0.15073,0 -0.27307,-0.12233 -0.27307,-0.27307s0.12233,-0.27307 0.27307,-0.27307l5.46131,0c0.15073,0 0.27307,0.12233 0.27307,0.27307s-0.12179,0.27307 -0.27307,0.27307z" fill="#fff"/>
   <path stroke="null" d="m42.32512,18.90774l-0.54613,0c-0.15073,0 -0.27307,-0.12233 -0.27307,-0.27307s0.12233,-0.27307 0.27307,-0.27307l0.54613,0c0.15073,0 0.27307,0.12233 0.27307,0.27307s-0.12233,0.27307 -0.27307,0.27307z" fill="#fff"/>
   <path stroke="null" d="m40.67035,18.90774l-1.07588,0c-0.15073,0 -0.27307,-0.12233 -0.27307,-0.27307s0.12233,-0.27307 0.27307,-0.27307l1.07588,0c0.15073,0 0.27307,0.12233 0.27307,0.27307s-0.12233,0.27307 -0.27307,0.27307z" fill="#fff"/>
   <path stroke="null" d="m45.60191,16.72322l-2.73065,0c-0.15073,0 -0.27307,-0.12233 -0.27307,-0.27307s0.12233,-0.27307 0.27307,-0.27307l2.73065,0c0.15073,0 0.27307,0.12233 0.27307,0.27307s-0.12179,0.27307 -0.27307,0.27307z" fill="#fff"/>
   <path stroke="null" d="m43.96352,20l-1.09226,0c-0.15073,0 -0.27307,-0.12233 -0.27307,-0.27307s0.12233,-0.27307 0.27307,-0.27307l1.09226,0c0.15073,0 0.27307,0.12233 0.27307,0.27307s-0.12233,0.27307 -0.27307,0.27307z" fill="#fff"/>
   <g stroke="null">
    <polygon stroke="null" points="35.68035125732422,9.623518943786621 33.101524353027344,9.623518943786621 31.038238525390625,7.438995838165283 29.491058349609375,34.199392318725586 38.77528381347656,32.01487159729004 " fill="#6f913d"/>
    <path stroke="null" d="m29.49105,34.58169c-0.08902,0 -0.1764,-0.03168 -0.24576,-0.08957c-0.0923,-0.0781 -0.14309,-0.19388 -0.13599,-0.31457l1.54719,-26.7604c0.00928,-0.15237 0.10759,-0.28453 0.25067,-0.33696c0.14527,-0.05352 0.30474,-0.0142 0.40905,0.09667l1.95023,2.06437l2.4139,0c0.19115,0 0.3528,0.1409 0.37847,0.32986l3.09492,22.39136c0.02731,0.19497 -0.0994,0.37901 -0.29109,0.42434l-9.28422,2.18452c-0.02894,0.0071 -0.05789,0.01038 -0.08738,0.01038zm1.8776,-26.23612l-1.46691,25.36394l8.447,-1.98737l-3.00153,-21.71634l-2.24514,0c-0.10486,0 -0.20589,-0.04314 -0.27798,-0.12015l-1.45544,-1.54009z" fill="#472b29"/>
   </g>
   <g stroke="null">
    <path stroke="null" d="m23.09696,11.45196l-1.50241,-0.37956c0.82193,-3.6629 2.78308,-6.16745 4.87913,-6.23135c0.92951,-0.03277 2.62689,0.41834 3.5635,3.72843l-1.47947,0.47022c-0.46148,-1.63075 -1.19111,-2.56135 -2.00648,-2.56135c-0.01092,0 -0.02185,0 -0.03277,0.00055c-1.12503,0.03386 -2.70662,1.78858 -3.42151,4.97307z" fill="#6f913d"/>
    <path stroke="null" d="m23.09696,11.83426c-0.03113,0 -0.06281,-0.00382 -0.09339,-0.01147l-1.50241,-0.37956c-0.20098,-0.05079 -0.32495,-0.25231 -0.27962,-0.45438c0.86125,-3.83602 2.96713,-6.46018 5.24067,-6.52954c1.02891,-0.05571 2.93218,0.43472 3.94306,4.00641c0.05625,0.19825 -0.05571,0.40578 -0.25231,0.46803l-1.47947,0.47022c-0.09885,0.03168 -0.20535,0.0213 -0.2971,-0.02785c-0.09066,-0.04915 -0.15838,-0.13271 -0.18678,-0.23265c-0.40468,-1.42977 -1.0169,-2.28337 -1.63839,-2.28337c-0.86179,0.02567 -2.36693,1.49257 -3.08127,4.67542c-0.02294,0.10103 -0.0852,0.18787 -0.17258,0.24194c-0.06062,0.03768 -0.12998,0.0568 -0.20043,0.0568zm-1.04366,-1.04038l0.76185,0.19278c0.8039,-3.16264 2.44066,-4.85182 3.69184,-4.88951c0.00055,0 0.00109,0 0.00109,0c0.9814,0 1.7782,0.86999 2.30249,2.46141l0.75202,-0.23921c-0.87872,-2.7454 -2.28446,-3.10967 -3.07526,-3.09656c-1.85357,0.05625 -3.60938,2.279 -4.43403,5.57108z" fill="#472b29"/>
   </g>
   <g stroke="null">
    <path stroke="null" d="m27.53208,8.52853c-0.21026,-2.87155 -1.6657,-4.96542 -3.2604,-5.14182c-2.57555,-0.30201 -5.12598,4.2336 -6.28815,8.00627l-2.65802,0.96119l-2.18452,18.56844l16.38392,3.27678l1.63839,-26.7604l-3.63122,1.08953zm-3.44062,-3.51326c0.55978,0.06226 1.71157,1.56084 1.83008,3.99658l-5.98614,1.79568c1.20968,-2.94747 2.91907,-5.92934 4.15605,-5.79226z" fill="#88ae45"/>
    <path stroke="null" d="m29.52546,34.58169c-0.02512,0 -0.05024,-0.00273 -0.07537,-0.00765l-16.38392,-3.27678c-0.19551,-0.03878 -0.32822,-0.22173 -0.30474,-0.41997l2.18452,-18.56844c0.01693,-0.14363 0.1136,-0.26542 0.24958,-0.31457l2.47943,-0.89675c1.31672,-4.15332 3.93378,-8.40386 6.64095,-8.09093c1.76564,0.19442 3.21671,2.27518 3.55149,5.02112l3.18613,-0.95573c0.12015,-0.03604 0.24958,-0.01038 0.34734,0.06663c0.0983,0.0781 0.15182,0.19825 0.14418,0.32331l-1.63839,26.7604c-0.00655,0.11032 -0.06062,0.21244 -0.148,0.27962c-0.06772,0.05188 -0.14964,0.07974 -0.2332,0.07974zm-15.9634,-3.96491l15.60841,3.12168l1.57832,-25.77573l-3.10639,0.9317c-0.11196,0.03386 -0.23156,0.0142 -0.32713,-0.05188c-0.09557,-0.06554 -0.15565,-0.17094 -0.16439,-0.28672c-0.18787,-2.56681 -1.44397,-4.62627 -2.92125,-4.78957c-2.18616,-0.24958 -4.66614,3.79561 -5.88128,7.73922c-0.03495,0.11469 -0.12233,0.20644 -0.23538,0.24685l-2.43574,0.88036l-2.11516,17.98408zm6.37334,-19.42696c-0.10595,0 -0.20971,-0.04424 -0.28344,-0.12561c-0.09885,-0.10868 -0.12616,-0.26487 -0.07045,-0.40141c0.77059,-1.87814 2.75632,-6.23572 4.55145,-6.0271l0,0c0.82193,0.0912 2.04471,1.79349 2.16978,4.35758c0.00874,0.17531 -0.10322,0.33423 -0.27197,0.38502l-5.98614,1.79568c-0.0355,0.01038 -0.07264,0.01584 -0.10923,0.01584zm4.07086,-5.79718c-0.6701,0 -2.00375,1.62856 -3.4013,4.81469l4.91463,-1.47401c-0.18787,-2.16486 -1.21023,-3.29535 -1.47073,-3.3385c-0.0142,-0.00164 -0.0284,-0.00218 -0.0426,-0.00218z" fill="#472b29"/>
   </g>
   <g stroke="null">
    <path stroke="null" d="m26.65773,14.3339c-0.54613,-0.54613 -6.43724,-2.25279 -8.08929,2.93545c-1.70666,5.35918 3.54985,5.63225 3.00372,7.81677s-4.09598,-0.71707 -4.09598,-0.71707l-0.8192,2.93545c0.27307,0.88746 6.8949,3.95945 8.46502,-1.29706c1.7285,-5.78625 -4.71038,-5.29091 -3.61812,-8.02157c0.45329,-1.13377 2.35492,-1.43359 3.99331,-0.34133c0.444,-1.19439 1.16053,-3.31064 1.16053,-3.31064z" fill="#fff"/>
   </g>
   <g stroke="null">
    <path stroke="null" d="m24.44863,21.91965c-0.07427,0 -0.148,-0.03058 -0.20207,-0.08957c-0.44073,-0.48551 -0.97703,-0.85415 -1.49531,-1.21186c-1.04584,-0.7198 -2.03434,-1.39973 -1.50077,-2.73338c0.20043,-0.5008 0.64225,-0.87982 1.24354,-1.06659c0.87272,-0.27033 1.92074,-0.1125 2.86227,0.41943c0.35225,-0.96884 0.81046,-2.3074 0.97812,-2.79947c-0.66355,-0.36318 -3.29208,-1.06277 -5.35044,0.09393c-0.13162,0.07427 -0.29764,0.02785 -0.37191,-0.10376c-0.07373,-0.13162 -0.02731,-0.29819 0.10431,-0.37191c2.46305,-1.38608 5.65027,-0.39977 6.13469,0.08465c0.07373,0.07373 0.09885,0.18241 0.06554,0.28071c-0.00765,0.0213 -0.72308,2.13373 -1.16326,3.31829c-0.02949,0.07864 -0.0923,0.13926 -0.17149,0.16493c-0.08028,0.02512 -0.16657,0.01311 -0.23593,-0.03277c-0.86343,-0.57562 -1.89343,-0.78097 -2.69024,-0.53248c-0.44127,0.13708 -0.76021,0.4025 -0.89838,0.74765c-0.35444,0.88692 0.20316,1.32327 1.30361,2.0813c0.51882,0.35717 1.10646,0.7624 1.58979,1.29433c0.10158,0.11141 0.09284,0.28453 -0.01857,0.38557c-0.05243,0.04751 -0.11796,0.071 -0.1835,0.071z" fill="#472b29"/>
   </g>
   <g stroke="null">
    <path stroke="null" d="m25.12201,26.2805c-0.02567,0 -0.05188,-0.00382 -0.0781,-0.01147c-0.14472,-0.04314 -0.22664,-0.19551 -0.1835,-0.33969c0.39103,-1.31126 0.38065,-2.37294 -0.03331,-3.24565c-0.06499,-0.13599 -0.00655,-0.29873 0.12943,-0.36372c0.13653,-0.06444 0.29983,-0.00655 0.36372,0.12998c0.47404,0.99997 0.49479,2.18944 0.06335,3.63505c-0.0355,0.11906 -0.14363,0.19551 -0.2616,0.19551z" fill="#472b29"/>
   </g>
   <g stroke="null">
    <path stroke="null" d="m21.15109,29.27821c-0.22664,0 -0.44619,-0.01256 -0.6559,-0.03386c-1.87432,-0.18732 -3.89828,-1.2064 -4.09926,-1.85957c-0.01529,-0.05024 -0.01584,-0.10322 -0.00164,-0.15401l0.8192,-2.93545c0.02458,-0.08847 0.0923,-0.15892 0.18077,-0.18678c0.08683,-0.0284 0.1835,-0.00983 0.25504,0.04915c0.00382,0.00328 0.41014,0.33314 0.95573,0.67829c0.12725,0.08028 0.16548,0.24904 0.0852,0.37683c-0.08028,0.12725 -0.24849,0.16548 -0.37683,0.08465c-0.27143,-0.17094 -0.50736,-0.33751 -0.68266,-0.4664l-0.68266,2.44557c0.26214,0.35553 1.92183,1.30634 3.77704,1.4396c1.20749,0.08738 2.83715,-0.16056 3.74536,-1.83281c0.07209,-0.13271 0.23757,-0.18132 0.37028,-0.10977c0.13271,0.07209 0.18186,0.23811 0.10977,0.37028c-0.92569,1.70393 -2.47397,2.13373 -3.79943,2.13428z" fill="#472b29"/>
   </g>
   <g stroke="null">
    <path stroke="null" d="m20.5853,26.17292c-0.32495,0 -0.70232,-0.08902 -1.12885,-0.26597c-0.13926,-0.05789 -0.20535,-0.21736 -0.14746,-0.35662c0.05789,-0.13981 0.21736,-0.2048 0.35717,-0.148c0.56579,0.23538 1.00761,0.28672 1.27958,0.15073c0.17531,-0.08847 0.29382,-0.26269 0.36154,-0.53357c0.16111,-0.64443 -0.29983,-1.08025 -1.12885,-1.79459c-1.08243,-0.93334 -2.56463,-2.21128 -2.15503,-4.85456c0.02294,-0.14909 0.16165,-0.25122 0.31184,-0.22828c0.14909,0.02294 0.25122,0.16275 0.22774,0.31129c-0.36372,2.34399 0.87709,3.41386 1.97153,4.35758c0.79844,0.68812 1.55265,1.33802 1.30198,2.34017c-0.10704,0.42817 -0.3244,0.7269 -0.64607,0.8891c-0.17422,0.08902 -0.37683,0.13271 -0.60511,0.13271z" fill="#472b29"/>
   </g>
   <g stroke="null">
    <path stroke="null" d="m18.56844,17.54241c-0.02731,0 -0.05516,-0.00437 -0.08301,-0.01256c-0.14363,-0.04587 -0.22282,-0.19934 -0.17749,-0.34297c0.27962,-0.87709 0.69522,-1.61928 1.23589,-2.20418c0.10213,-0.11141 0.2747,-0.11742 0.38611,-0.01529c0.11086,0.10267 0.11742,0.27525 0.01529,0.38557c-0.48606,0.52647 -0.86125,1.19876 -1.11629,1.99938c-0.03714,0.11578 -0.14472,0.19005 -0.2605,0.19005z" fill="#472b29"/>
   </g>
   <g stroke="null">
    <path stroke="null" d="m25.31206,11.14176c-0.05953,0 -0.11414,-0.03878 -0.13107,-0.0994c-0.02075,-0.07264 0.0213,-0.148 0.09393,-0.16875l3.90593,-1.10865c0.07264,-0.01911 0.148,0.02185 0.16875,0.09393c0.02075,0.07264 -0.0213,0.148 -0.09393,0.16875l-3.90593,1.10865c-0.01256,0.00382 -0.02567,0.00546 -0.03768,0.00546z" fill="#472b29"/>
   </g>
   <g stroke="null">
    <path stroke="null" d="m19.85458,12.69059c-0.05953,0 -0.11414,-0.03878 -0.13162,-0.0994c-0.02075,-0.07264 0.02185,-0.148 0.09393,-0.16875l4.24835,-1.20586c0.07318,-0.02185 0.148,0.0213 0.16875,0.09393s-0.02185,0.148 -0.09393,0.16875l-4.24835,1.20586c-0.01256,0.00382 -0.02512,0.00546 -0.03714,0.00546z" fill="#472b29"/>
   </g>
   <g stroke="null">
    <path stroke="null" d="m15.56472,20.95573c-0.00492,0 -0.00983,0 -0.01475,-0.00055c-0.07482,-0.00874 -0.12889,-0.07591 -0.12124,-0.15019l0.78534,-7.27064c0.00601,-0.05571 0.04478,-0.10213 0.0983,-0.11687l2.25497,-0.64007c0.07318,-0.02294 0.148,0.0213 0.16875,0.09393c0.02075,0.07264 -0.02185,0.148 -0.09393,0.16875l-2.1665,0.61494l-0.77496,7.17889c-0.00765,0.0699 -0.06717,0.12179 -0.13599,0.12179z" fill="#472b29"/>
   </g>
   <g stroke="null">
    <path stroke="null" d="m28.21202,24.09707c-0.00273,0 -0.00601,0 -0.00928,-0.00055c-0.07537,-0.00492 -0.13216,-0.0699 -0.1267,-0.14527l0.18678,-2.83387c0.00492,-0.07482 0.05625,-0.13162 0.14527,-0.1267c0.07537,0.00492 0.13216,0.0699 0.1267,0.14527l-0.18678,2.83387c-0.00437,0.07154 -0.06444,0.12725 -0.13599,0.12725z" fill="#472b29"/>
   </g>
   <g stroke="null">
    <path stroke="null" d="m27.90018,28.83912c-0.00273,0 -0.00601,0 -0.00928,-0.00055c-0.07537,-0.00492 -0.13216,-0.0699 -0.1267,-0.14527l0.22883,-3.47994c0.00437,-0.07482 0.05898,-0.13544 0.14527,-0.1267c0.07537,0.00492 0.13216,0.0699 0.1267,0.14527l-0.22883,3.47994c-0.00437,0.07154 -0.06444,0.12725 -0.13599,0.12725z" fill="#472b29"/>
   </g>
   <g stroke="null">
    <path stroke="null" d="m27.68227,32.15141c-0.00655,0 -0.01256,-0.00055 -0.01911,-0.00109l-4.36904,-0.6144c-0.07482,-0.01092 -0.1267,-0.07974 -0.11633,-0.15455c0.01092,-0.07482 0.08137,-0.11796 0.15401,-0.11633l4.22377,0.59419l0.12124,-1.83555c0.00492,-0.07482 0.0568,-0.14199 0.14527,-0.1267c0.07537,0.00492 0.13216,0.0699 0.1267,0.14527l-0.13053,1.98245c-0.00218,0.03768 -0.02021,0.07318 -0.05024,0.09721c-0.02403,0.01857 -0.05516,0.02949 -0.08574,0.02949z" fill="#472b29"/>
   </g>
   <g stroke="null">
    <path stroke="null" d="m35.77156,29.01116c0,0 -0.85579,0 -1.91146,0s-1.91146,-0.85579 -1.91146,-1.91146c0,-0.97266 0.72908,-1.76619 1.66843,-1.88688c-0.01529,-0.09776 -0.03004,-0.19551 -0.03004,-0.29764c0,-1.05567 0.85579,-1.91146 1.91146,-1.91146c0.56361,0 1.06495,0.24849 1.41448,0.63624c0.20971,-0.9874 1.08516,-1.7285 2.13537,-1.7285c1.2064,0 2.18452,0.97812 2.18452,2.18452c0,0.10431 -0.01638,0.20425 -0.03058,0.30474c0.23374,-0.18787 0.52647,-0.30474 0.84978,-0.30474c0.67065,0 1.22606,0.48442 1.34075,1.1223c0.09776,-0.01529 0.19551,-0.03004 0.29764,-0.03004c1.05567,0 1.91146,0.85579 1.91146,1.91146s-0.85579,1.91146 -1.91146,1.91146s-4.09598,0 -4.09598,0l0,0.27307l-3.82291,0l0,-0.27307z" fill="#fdfcef"/>
    <path stroke="null" d="m34.81583,26.55357c0.07537,0 0.13653,-0.06117 0.13653,-0.13653c0,-0.66792 -0.5434,-1.21132 -1.21132,-1.21132c-0.01857,0.00492 -0.4025,-0.00055 -0.67939,0.07427c-0.07264,0.01966 -0.11578,0.09448 -0.09612,0.16712c0.01966,0.07318 0.09448,0.11633 0.16712,0.09612c0.24248,-0.06554 0.60074,-0.06554 0.60784,-0.06444c0.51773,0 0.9388,0.42107 0.9388,0.93825c0,0.07537 0.06117,0.13653 0.13653,0.13653z" fill="#472b29"/>
    <circle stroke="null" fill="#472b29" r="0.27306" cy="29.01116" cx="38.50221"/>
    <path stroke="null" d="m33.8601,29.28422l1.91146,0c0.15073,0 0.27307,-0.12233 0.27307,-0.27307s-0.12233,-0.27307 -0.27307,-0.27307l-1.91146,0c-0.9033,0 -1.63839,-0.73509 -1.63839,-1.63839c0,-0.81701 0.6144,-1.51169 1.42977,-1.616c0.07318,-0.00983 0.13926,-0.04806 0.1835,-0.10704s0.06281,-0.13326 0.05134,-0.20589c-0.01256,-0.0841 -0.02621,-0.16821 -0.02621,-0.25559c0,-0.9033 0.73509,-1.63839 1.63839,-1.63839c0.46421,0 0.89456,0.19388 1.21186,0.54613c0.06827,0.07591 0.17531,0.10813 0.27307,0.08083c0.0994,-0.02676 0.17531,-0.1065 0.19661,-0.20698c0.18623,-0.87599 0.97211,-1.51224 1.86831,-1.51224c1.05403,0 1.91146,0.85743 1.91146,1.91146c0,0.0781 -0.01147,0.15292 -0.02239,0.22828c-0.01584,0.11086 0.03441,0.23921 0.13216,0.29491c0.09776,0.05571 0.21627,0.06444 0.30365,-0.00546c0.19934,-0.16002 0.43363,-0.24467 0.67884,-0.24467c0.52756,0 0.97867,0.37738 1.07205,0.89784c0.02621,0.14582 0.16165,0.24357 0.31075,0.22118c0.0841,-0.01311 0.16821,-0.02676 0.25559,-0.02676c0.9033,0 1.63839,0.73509 1.63839,1.63839s-0.73509,1.63839 -1.63839,1.63839l-4.09598,0c-0.15073,0 -0.27307,0.12233 -0.27307,0.27307s0.12233,0.27307 0.27307,0.27307l4.09598,0c1.20476,0 2.18452,-0.97976 2.18452,-2.18452s-0.97976,-2.18452 -2.18452,-2.18452c-0.03222,0 -0.06335,0.00109 -0.09503,0.00328c-0.2261,-0.64771 -0.8394,-1.09554 -1.54337,-1.09554c-0.1906,0 -0.37628,0.03331 -0.55214,0.0983c-0.09011,-1.27412 -1.15507,-2.28283 -2.45158,-2.28283c-0.99997,0 -1.89289,0.61549 -2.26808,1.51497c-0.37137,-0.27197 -0.82029,-0.42271 -1.28177,-0.42271c-1.20476,0 -2.18452,0.97976 -2.18452,2.18452c0,0.02621 0.00055,0.05188 0.00218,0.07755c-0.95191,0.24467 -1.64058,1.10701 -1.64058,2.10697c0,1.20476 0.97976,2.18452 2.18452,2.18452z" fill="#472b29"/>
    <path stroke="null" d="m36.86382,28.73809c0.08683,0 0.4593,0 0.54613,0c0.15073,0 0.27307,0.12233 0.27307,0.27307c0,0.15073 -0.12233,0.27307 -0.27307,0.27307c-0.08683,0 -0.4593,0 -0.54613,0c-0.15073,0 -0.27307,-0.12233 -0.27307,-0.27307c0,-0.15073 0.12233,-0.27307 0.27307,-0.27307z" fill="#472b29"/>
   </g>
  </g>
  <g stroke="null">
   <g stroke="#fff" fill="white" stroke-width="0.25mm" font-size="9pt" fill-rule="evenodd" stroke-linecap="round" id="svg_7">
    <path stroke="null" vector-effect="non-scaling-stroke" d="m132.95574,28.08998l-18.17379,0.63499a1.78563,1.78563 0 0 1 -0.60433,-0.09612q-0.59163,-0.21174 -0.86271,-0.8892a6.53337,6.53337 0 0 1 -0.05124,-0.15984q-0.06656,-0.21874 -0.07773,-0.32647a0.38165,0.38165 0 0 1 -0.00241,-0.03919q0,-0.19115 0.15174,-0.23057a0.35494,0.35494 0 0 1 0.08912,-0.01029q0.10138,0 0.2875,0.03919a4.25661,4.25661 0 0 1 0.11758,0.02649a1.92861,1.92861 0 0 0 0.18918,0.0346q0.21305,0.02912 0.50274,0.03087a6.26164,6.26164 0 0 0 0.0416,0.00022l7.68554,-0.28465l0.04379,-10.37877l-4.5106,0.28465q-0.77819,0 -1.17057,-0.2286a0.90103,0.90103 0 0 1 -0.1651,-0.12174q-0.36785,-0.3407 -0.5069,-0.68141a1.08758,1.08758 0 0 1 -0.0843,-0.4134q0,-0.26275 0.24086,-0.26275q0.10138,0 0.2875,0.03919a4.25661,4.25661 0 0 1 0.11758,0.02649a2.00547,2.00547 0 0 0 0.20758,0.03744q0.21677,0.02825 0.50405,0.02825l10.57583,-0.67878q0.65688,-0.04379 0.93059,-0.13138a2.07794,2.07794 0 0 1 0.22115,-0.05824q0.14495,-0.02934 0.27151,-0.02934a0.58682,0.58682 0 0 1 0.15568,0.02321q0.14627,0.04051 0.33129,0.1513a2.51499,2.51499 0 0 1 0.07138,0.04445q0.33939,0.21896 0.60214,0.52551q0.21896,0.25531 0.25553,0.44997a0.40902,0.40902 0 0 1 0.00723,0.07554q0,0.40442 -0.66236,0.45719a2.28004,2.28004 0 0 1 -0.03832,0.00263l-5.84627,0.37223l-0.06569,10.40066l6.7878,-0.24086a8.91238,8.91238 0 0 0 0.32691,-0.02978q0.35866,-0.04007 0.58178,-0.1016a3.76197,3.76197 0 0 1 0.16729,-0.04226q0.19947,-0.04532 0.32538,-0.04532a0.43924,0.43924 0 0 1 0.10992,0.01598q0.10707,0.02803 0.2529,0.1051a2.74818,2.74818 0 0 1 0.15174,0.08693a2.77205,2.77205 0 0 1 0.552,0.44778a3.13334,3.13334 0 0 1 0.07204,0.07773q0.24699,0.27545 0.27961,0.4931a0.43836,0.43836 0 0 1 0.00504,0.06525q0,0.36807 -0.43486,0.46967a1.50361,1.50361 0 0 1 -0.24392,0.03394zm-72.49809,-0.39413l0.0219,-4.37923l-2.23341,0.08758l0.0219,0.39413q0,0.65688 -0.48171,0.65688q-0.48171,0 -0.843,-0.30655a0.97876,0.97876 0 0 1 -0.35888,-0.71228a1.23122,1.23122 0 0 1 -0.00241,-0.07598q0.0335,-0.26823 0.04138,-0.485a3.53798,3.53798 0 0 0 0.00241,-0.12809q0,-0.24086 -0.04379,-0.41603a385.13869,385.13869 0 0 0 -0.11627,-1.29428q-0.2367,-2.58396 -0.34355,-3.26011q-0.06569,-0.30655 -0.21896,-0.58025q-0.12021,-0.2148 -0.14605,-0.35537a0.39698,0.39698 0 0 1 -0.00723,-0.0716a0.1986,0.1986 0 0 1 0.12087,-0.18962q0.08934,-0.04423 0.24436,-0.05036a1.3061,1.3061 0 0 1 0.0508,-0.00088q0.28093,0 1.49988,0.40508a37.77564,37.77564 0 0 1 0.03284,0.01095l2.8027,-0.17517l0.0219,-3.50338q0,-0.46858 -0.08956,-0.81563a1.94503,1.94503 0 0 0 -0.06372,-0.20254q-0.14977,-0.39588 -0.15305,-0.4885a0.11298,0.11298 0 0 1 -0.00022,-0.00416a0.35669,0.35669 0 0 1 0.02299,-0.13313q0.06941,-0.17342 0.34924,-0.17342a1.06678,1.06678 0 0 1 0.14649,0.0116q0.22816,0.03197 0.59798,0.15262q0.50361,0.16422 0.65688,0.38318a0.85066,0.85066 0 0 1 0.15305,0.47646a1.04029,1.04029 0 0 1 0.00022,0.02715l-0.04379,4.18216l3.4158,-0.21896q0.22641,0 0.55813,0.21918a2.87409,2.87409 0 0 1 0.1097,0.07642a1.84541,1.84541 0 0 1 0.16772,0.13685q0.16751,0.15546 0.21677,0.30151a0.37355,0.37355 0 0 1 0.02058,0.11999q0,0.23319 -0.08211,0.35362a0.31771,0.31771 0 0 1 -0.00547,0.00766q-0.07642,0.1051 -0.51938,3.15173a383.8639,383.8639 0 0 0 -0.13751,0.9538a8.62729,8.62729 0 0 1 0.20845,0.24655q0.30698,0.3788 0.38099,0.58266a0.33742,0.33742 0 0 1 0.02365,0.11233q0,0.32844 -0.2956,0.37223q-0.27896,0.04138 -3.68709,0.16072a799.67994,799.67994 0 0 1 -0.41844,0.01445l-0.04379,4.13837l2.64943,-0.5693q-0.48171,-0.81016 -0.78826,-1.25903q-0.30655,-0.44887 -0.30655,-0.64594a0.31246,0.31246 0 0 1 0.03591,-0.1386q0.05321,-0.10773 0.1859,-0.22903a1.78344,1.78344 0 0 1 0.09569,-0.08123q0.31749,-0.25181 0.60214,-0.25181a0.41471,0.41471 0 0 1 0.21152,0.06306q0.14408,0.08496 0.29363,0.28421a2.26362,2.26362 0 0 1 0.08605,0.12349q0.30655,0.47077 0.79921,1.21524q0.44077,0.66586 1.07422,1.71731a94.71193,94.71193 0 0 1 0.15196,0.25334q0.57981,0.96934 0.70133,1.40507a0.74556,0.74556 0 0 1 0.03219,0.19334a0.73724,0.73724 0 0 1 -0.05912,0.30085q-0.07532,0.17079 -0.24721,0.28684a0.9573,0.9573 0 0 1 -0.09875,0.05824q-0.30282,0.15546 -0.48938,0.19466a0.55397,0.55397 0 0 1 -0.11277,0.01336a0.51434,0.51434 0 0 1 -0.37924,-0.16838q-0.11955,-0.12284 -0.21195,-0.33523a19.52478,19.52478 0 0 0 -0.53711,-1.14451a16.32335,16.32335 0 0 0 -0.33873,-0.62908a109.51371,109.51371 0 0 1 -3.10684,0.75432q-2.46835,0.55945 -4.53491,0.88789q-0.62732,0.09897 -0.99321,0.12349a3.21829,3.21829 0 0 1 -0.21108,0.00788a1.06787,1.06787 0 0 1 -0.62119,-0.20166a1.44602,1.44602 0 0 1 -0.14517,-0.11583a2.41361,2.41361 0 0 1 -0.26888,-0.28399q-0.14846,-0.18677 -0.23473,-0.38384a6.60387,6.60387 0 0 1 -0.05211,-0.12218q-0.10028,-0.24261 -0.10116,-0.31465a0.10291,0.10291 0 0 1 0,-0.00109q0,-0.22465 0.19115,-0.27195a0.48193,0.48193 0 0 1 0.11539,-0.0127a13.31613,13.31613 0 0 0 0.32034,0.04795q0.34574,0.04708 0.59032,0.05824a3.12107,3.12107 0 0 0 0.14035,0.00328q0.24086,0 1.67505,-0.19707q1.4342,-0.19707 2.33194,-0.35034zm81.38791,-1.83927l-5.18938,0.21896q-0.9481,0 -1.39194,-1.10619a3.44711,3.44711 0 0 1 -0.05321,-0.14189a0.35778,0.35778 0 0 1 -0.01248,-0.05036q-0.00942,-0.05299 -0.00942,-0.12481a0.25312,0.25312 0 0 1 0.01204,-0.08145q0.03832,-0.11277 0.19904,-0.11561a0.47361,0.47361 0 0 1 0.00788,0a0.49354,0.49354 0 0 1 0.06372,0.00482q0.10642,0.01401 0.28925,0.06941a4.25726,4.25726 0 0 1 0.00832,0.00241a1.34705,1.34705 0 0 0 0.17167,0.03876q0.22969,0.03788 0.58375,0.03788l3.70045,-0.15327l-0.30655,-10.51014q-0.04839,-0.59755 -0.14451,-0.92095a1.21436,1.21436 0 0 0 -0.07445,-0.19575a2.15896,2.15896 0 0 1 -0.07401,-0.16378q-0.06919,-0.1732 -0.07795,-0.30304a0.54718,0.54718 0 0 1 -0.00131,-0.03679a0.23692,0.23692 0 0 1 0.13751,-0.22619q0.10247,-0.05255 0.28093,-0.05781a1.38559,1.38559 0 0 1 0.04138,-0.00066a0.91285,0.91285 0 0 1 0.19312,0.02628q0.31596,0.07094 0.92511,0.33501a18.47661,18.47661 0 0 1 0.41449,0.18612l8.01398,-0.52551a1.98751,1.98751 0 0 1 0.51456,0.06394a1.60323,1.60323 0 0 1 0.47077,0.20976a1.61659,1.61659 0 0 1 0.17714,0.13313q0.23889,0.20955 0.23889,0.42522q0,0.2448 -0.05671,0.37618a0.36851,0.36851 0 0 1 -0.01993,0.03985a1.48937,1.48937 0 0 0 -0.04248,0.07795q-0.03744,0.07379 -0.05321,0.13028a0.40574,0.40574 0 0 0 -0.00285,0.01073l-0.41603,10.48825l1.90496,-0.08758a10.66517,10.66517 0 0 0 0.36282,-0.02584q0.50186,-0.04511 0.73199,-0.12744a2.89905,2.89905 0 0 1 0.16203,-0.05299q0.15787,-0.04598 0.27064,-0.05452a0.65032,0.65032 0 0 1 0.04905,-0.00197a0.52857,0.52857 0 0 1 0.13926,0.0208q0.13203,0.03613 0.29932,0.13597a2.27851,2.27851 0 0 1 0.06503,0.04029q0.83205,0.5474 0.83205,0.98533q0,0.39413 -0.72257,0.43792l-11.3203,0.50361a0.03153,0.03153 0 0 0 -0.00854,0.00109q-0.00985,0.00285 -0.01248,0.0127a0.03219,0.03219 0 0 0 -0.00088,0.0081a0.15787,0.15787 0 0 0 0.01445,0.05167q0.05167,0.12612 0.28684,0.49398a19.45953,19.45953 0 0 0 0.11474,0.17692a2.03743,2.03743 0 0 1 0.10466,0.17386q0.09503,0.17889 0.11101,0.31837a0.48215,0.48215 0 0 1 0.00328,0.05518q0,0.20144 -0.18371,0.38756a1.1051,1.1051 0 0 1 -0.07905,0.07226a26.85517,26.85517 0 0 1 -1.27676,1.04094q-0.90387,0.68951 -1.72301,1.17057q-1.3164,0.77315 -2.21414,1.11758a7.08975,7.08975 0 0 1 -0.08496,0.03197a18.38421,18.38421 0 0 1 -0.321,0.11539q-0.47755,0.16619 -0.70856,0.20911a0.74907,0.74907 0 0 1 -0.13094,0.01489a0.68644,0.68644 0 0 1 -0.12678,-0.01073q-0.21086,-0.03963 -0.2229,-0.2286a0.36851,0.36851 0 0 1 -0.00066,-0.02343q0,-0.27523 0.5531,-0.65316a4.10268,4.10268 0 0 1 0.0381,-0.02562q2.60564,-1.75169 4.07268,-3.4158a9.48913,9.48913 0 0 0 0.23079,-0.26976q0.33479,-0.40792 0.41953,-0.63017a0.37377,0.37377 0 0 0 0.02846,-0.12919a0.14583,0.14583 0 0 0 -0.00153,-0.02321q-0.00657,-0.04051 -0.03898,-0.04248a0.0554,0.0554 0 0 0 -0.00328,0q-0.04226,0 -0.12568,0.06153a0.88132,0.88132 0 0 0 -0.00569,0.00416zm-89.11725,2.78081l0.17517,-1.00722a9.95332,9.95332 0 0 0 0.07423,-0.64791q0.06043,-0.71359 0.07467,-1.73877a47.46906,47.46906 0 0 0 0.00438,-0.65688q0,-1.93912 -0.08123,-2.86379a9.53598,9.53598 0 0 0 -0.00635,-0.07029a15.60428,15.60428 0 0 1 -2.24983,2.50032a18.23466,18.23466 0 0 1 -0.90322,0.7622q-1.57652,1.24808 -2.08013,1.24808a0.44121,0.44121 0 0 1 -0.1213,-0.01511q-0.13597,-0.03898 -0.1721,-0.1778a0.45172,0.45172 0 0 1 -0.01314,-0.11364q0,-0.2032 0.37749,-0.59536a4.56578,4.56578 0 0 1 0.06043,-0.06153q2.75891,-2.62754 4.70767,-5.75868q-0.35034,-1.22618 -0.61309,-1.88307q-1.3199,1.12305 -2.24107,1.60783a5.14493,5.14493 0 0 1 -0.20035,0.10007a19.53616,19.53616 0 0 1 -0.33873,0.15634q-0.67659,0.30348 -0.85461,0.30348a0.75432,0.75432 0 0 1 -0.12349,-0.0092q-0.21918,-0.03657 -0.22662,-0.21852a0.31793,0.31793 0 0 1 -0.00022,-0.01314q0,-0.30655 0.65688,-0.83205a20.76782,20.76782 0 0 0 2.02233,-1.70461a18.0411,18.0411 0 0 0 0.69279,-0.70396q-0.67878,-1.40135 -1.686,-2.60564a1.8419,1.8419 0 0 1 -0.08561,-0.12371q-0.11145,-0.17714 -0.11145,-0.29231a0.28334,0.28334 0 0 1 0.02737,-0.11495q0.0427,-0.09525 0.1513,-0.2102a1.87124,1.87124 0 0 1 0.11693,-0.11277a1.43026,1.43026 0 0 1 0.17254,-0.13291q0.09678,-0.0624 0.1894,-0.09481a0.59317,0.59317 0 0 1 0.19641,-0.03503a0.42938,0.42938 0 0 1 0.17232,0.04073q0.14736,0.06481 0.32581,0.23341a2.83205,2.83205 0 0 1 0.15875,0.16378a11.25111,11.25111 0 0 1 0.89336,1.20801a14.13242,14.13242 0 0 1 0.52989,0.89402a42.76446,42.76446 0 0 0 0.46004,-0.56711q0.90847,-1.14123 1.0508,-1.52397a3.02539,3.02539 0 0 0 0.12437,-0.41997q0.0508,-0.23757 0.0508,-0.45588q0,-0.35187 0.26429,-0.39807a0.49945,0.49945 0 0 1 0.08605,-0.00701q0.16685,0 0.42019,0.14911a2.33719,2.33719 0 0 1 0.09437,0.0589a2.92313,2.92313 0 0 1 0.48697,0.40311a3.33609,3.33609 0 0 1 0.10423,0.11145a2.02145,2.02145 0 0 1 0.11649,0.14211q0.10773,0.14539 0.14167,0.26122a0.35778,0.35778 0 0 1 0.01555,0.10028a0.38012,0.38012 0 0 1 -0.02014,0.10948q-0.06919,0.22159 -0.37399,0.67878a15.27189,15.27189 0 0 1 -1.3291,1.75344a18.70937,18.70937 0 0 1 -0.97,1.02737a16.61544,16.61544 0 0 1 1.19597,3.96451q0.31574,1.78782 0.33545,3.82109a28.04456,28.04456 0 0 1 0.00131,0.27217a45.95801,45.95801 0 0 1 -0.02715,1.64987q-0.08167,2.2588 -0.40749,3.24917a2.49572,2.49572 0 0 1 -0.13466,0.33413a1.84344,1.84344 0 0 1 -0.24589,0.37048a1.08342,1.08342 0 0 1 -0.84891,0.39588q-0.60674,0 -1.84891,-1.037a14.68617,14.68617 0 0 1 -0.20933,-0.17823a17.02665,17.02665 0 0 1 -0.47624,-0.42763q-0.91701,-0.85811 -0.92511,-1.19772a0.25202,0.25202 0 0 1 0,-0.00591a0.35034,0.35034 0 0 1 0.01905,-0.12043q0.06,-0.16422 0.30939,-0.16422a0.4758,0.4758 0 0 1 0.12065,0.02014q0.26451,0.07248 0.86468,0.40683a14.54253,14.54253 0 0 0 0.45434,0.24327q0.47296,0.24195 0.82658,0.36983a15.64238,15.64238 0 0 0 0.17802,0.06328q0.35297,0.12284 0.42413,0.12284zm49.90128,-6.41557l1.66411,-0.08758l-0.04379,-8.88983a1.48828,1.48828 0 0 0 -0.03591,-0.33479a1.13947,1.13947 0 0 0 -0.13926,-0.34399a1.74446,1.74446 0 0 1 -0.08474,-0.15327q-0.08058,-0.16663 -0.08934,-0.29713a0.4677,0.4677 0 0 1 -0.00109,-0.03131q0,-0.23692 0.26735,-0.26013a0.7079,0.7079 0 0 1 0.06109,-0.00263a1.68316,1.68316 0 0 1 0.12481,0.00526q0.13554,0.01007 0.32406,0.04007a7.3571,7.3571 0 0 1 0.12043,0.02036a3.10618,3.10618 0 0 1 0.41559,0.09897q0.45018,0.14408 0.6201,0.40136a0.62711,0.62711 0 0 1 0.10291,0.35362l-0.04379,4.35733l2.99977,-0.17517a2.74074,2.74074 0 0 0 0.27721,-0.02868q0.21546,-0.03416 0.37968,-0.10269a1.77008,1.77008 0 0 1 0.17298,-0.0624q0.09109,-0.02715 0.17276,-0.03876a0.81935,0.81935 0 0 1 0.11408,-0.00832a0.51193,0.51193 0 0 1 0.14583,0.02321q0.12875,0.03854 0.28553,0.14014a1.98817,1.98817 0 0 1 0.05036,0.03372q0.65688,0.45982 0.65688,0.96343q0,0.40442 -0.66236,0.45719a2.28004,2.28004 0 0 1 -0.03832,0.00263l-4.55439,0.21896l-0.04379,3.56907a933.8765,933.8765 0 0 0 0.67987,-0.03109q1.98839,-0.09196 2.31004,-0.11714a1.00854,1.00854 0 0 0 0.05365,-0.00504a1.328,1.328 0 0 1 0.42807,0.07423q0.1929,0.06547 0.39304,0.18853a1.40201,1.40201 0 0 1 0.18677,0.13554q0.2402,0.20933 0.2402,0.45566q0,0.30655 -0.07664,0.42697q-0.07664,0.12043 -0.79921,4.65293q0.5474,0.67878 0.5474,0.94153a0.64769,0.64769 0 0 1 -0.01379,0.13948q-0.04467,0.20254 -0.23451,0.25378a0.42238,0.42238 0 0 1 -0.0035,0.00088a1.23122,1.23122 0 0 1 -0.15656,0.01774q-0.74753,0.05737 -4.8408,0.16356a1082.85427,1082.85427 0 0 1 -1.49485,0.03766l0.04379,0.65688a1.10247,1.10247 0 0 1 -0.0254,0.24786q-0.07861,0.33983 -0.40201,0.39741a0.81103,0.81103 0 0 1 -0.14189,0.0116q-1.22618,-0.28465 -1.22618,-0.96343a8.69101,8.69101 0 0 0 0.06437,-0.93562a9.71006,9.71006 0 0 0 0.00131,-0.15918a4.43484,4.43484 0 0 0 -0.00438,-0.15043q-0.02671,-0.65645 -0.21327,-3.77205a1871.68884,1871.68884 0 0 0 -0.067,-1.11364a11.12564,11.12564 0 0 0 -0.03131,-0.33676q-0.06065,-0.55266 -0.15481,-0.75804q-0.09262,-0.2021 -0.11408,-0.32647a0.40267,0.40267 0 0 1 -0.00635,-0.06766q0,-0.25443 0.31662,-0.29757a1.06152,1.06152 0 0 1 0.1432,-0.00898a1.11364,1.11364 0 0 1 0.17823,0.01774q0.29472,0.04949 0.85461,0.23538a18.61346,18.61346 0 0 1 0.34662,0.11911zm59.55747,1.77359l-0.0219,0.08758a1.98029,1.98029 0 0 1 -0.23166,0.39435q-0.62448,0.87081 -2.68052,2.7368a20.8692,20.8692 0 0 1 -0.5139,0.45391q-1.01948,0.86818 -1.37989,0.88154a0.29998,0.29998 0 0 1 -0.01117,0.00022a0.35034,0.35034 0 0 1 -0.12021,-0.01905q-0.16444,-0.05978 -0.16444,-0.30939q0,-0.21305 0.66367,-0.88241a12.25329,12.25329 0 0 1 0.037,-0.03722a23.10983,23.10983 0 0 0 2.64987,-3.305a28.63138,28.63138 0 0 0 1.40091,-2.3442l-2.36478,0.13138a0.89796,0.89796 0 0 1 -0.66455,-0.27896a1.13707,1.13707 0 0 1 -0.03613,-0.03854a2.93934,2.93934 0 0 1 -0.2356,-0.29757a2.15589,2.15589 0 0 1 -0.19137,-0.33742q-0.11736,-0.26188 -0.13795,-0.33764a0.1016,0.1016 0 0 1 -0.00438,-0.02365q0,-0.2067 0.17604,-0.25071a0.44799,0.44799 0 0 1 0.1086,-0.01204l0.96343,0.13138l2.8246,-0.17517l0,-1.59842q0,-0.44997 -0.11364,-0.69871a0.73483,0.73483 0 0 0 -0.02868,-0.05671a1.40289,1.40289 0 0 1 -0.07948,-0.16291q-0.06284,-0.15502 -0.06284,-0.28596a0.27589,0.27589 0 0 1 0.02474,-0.12109q0.05627,-0.11649 0.24042,-0.13729a0.76636,0.76636 0 0 1 0.08518,-0.00438q0.21896,0 0.5474,0.08758q0.57258,0.1397 0.77994,0.36851a0.41953,0.41953 0 0 1 0.1178,0.28837l0,2.2553q0.89774,-0.04379 1.88307,-0.24086q0.65688,0 1.1167,0.65688q0.16597,0.22137 0.19225,0.38055a0.35406,0.35406 0 0 1 0.00482,0.05737q0,0.35034 -0.41603,0.41603l-2.78081,0.17517l0,0.81016l0.28465,0a0.39172,0.39172 0 0 1 0.14276,0.03963q0.37661,0.16356 1.43376,1.00043a15.81382,15.81382 0 0 1 0.44646,0.36588q0.82548,0.70418 0.86534,0.99605a0.21108,0.21108 0 0 1 0.00197,0.02846a0.8384,0.8384 0 0 1 -0.18612,0.52507a1.20144,1.20144 0 0 1 -0.13138,0.14276q-0.25159,0.23429 -0.44121,0.2829a0.38318,0.38318 0 0 1 -0.09525,0.0127a0.29319,0.29319 0 0 1 -0.11802,-0.03284q-0.24655,-0.11495 -0.77469,-0.63083a12.55546,12.55546 0 0 1 -0.03788,-0.037a20.45317,20.45317 0 0 0 -0.87125,-0.81125a16.675,16.675 0 0 0 -0.51916,-0.43683l-0.0219,6.52505a1.80315,1.80315 0 0 1 -0.0162,0.25312q-0.07007,0.49135 -0.44362,0.49135a1.00722,1.00722 0 0 1 -0.33457,-0.06153q-0.1397,-0.04905 -0.28837,-0.13729a2.5209,2.5209 0 0 1 -0.2529,-0.17342a1.05933,1.05933 0 0 1 -0.13444,-0.1213q-0.06569,-0.0716 -0.10269,-0.14539a0.42654,0.42654 0 0 1 -0.04751,-0.19312a4.15654,4.15654 0 0 1 0.03394,-0.52047a4.87342,4.87342 0 0 1 0.03175,-0.21305a2.432,2.432 0 0 0 0.0219,-0.23341q0.04379,-0.72454 0.04379,-3.28092a99.49142,99.49142 0 0 0 -0.00109,-0.46704q-0.00701,-1.5255 -0.06459,-1.5255zm-73.46152,5.16749l-17.5169,0.63499a1.78563,1.78563 0 0 1 -0.60433,-0.09612q-0.59163,-0.21174 -0.86271,-0.8892a6.53337,6.53337 0 0 1 -0.05124,-0.15984q-0.06656,-0.21874 -0.07773,-0.32647a0.38165,0.38165 0 0 1 -0.00241,-0.03919q0,-0.19115 0.15174,-0.23057a0.35494,0.35494 0 0 1 0.08912,-0.01029q0.10138,0 0.2875,0.03919a4.25661,4.25661 0 0 1 0.11758,0.02649a1.92861,1.92861 0 0 0 0.18918,0.0346q0.21305,0.02912 0.50274,0.03087a6.26164,6.26164 0 0 0 0.0416,0.00022l8.64897,-0.32844a41.6241,41.6241 0 0 0 1.54061,-3.53841q0.68776,-1.81804 1.09875,-3.50579a25.05859,25.05859 0 0 0 0.05386,-0.22531a18.09737,18.09737 0 0 0 0.06832,-0.31005q0.08737,-0.41581 0.10335,-0.61747a1.02211,1.02211 0 0 0 0.0035,-0.0797a1.31464,1.31464 0 0 0 -0.03854,-0.30961a1.67374,1.67374 0 0 0 -0.06,-0.194q-0.09853,-0.26275 -0.09853,-0.39413q0,-0.31837 0.34968,-0.32822a0.80556,0.80556 0 0 1 0.02255,-0.00022a1.2726,1.2726 0 0 1 0.15283,0.01051q0.21743,0.02649 0.54784,0.12087a4.05341,4.05341 0 0 1 0.46354,0.17276q0.49354,0.22268 0.68513,0.51806a0.72892,0.72892 0 0 1 0.1213,0.40398q-0.32844,1.37946 -1.37946,3.9632q-0.79943,1.96562 -1.54828,3.41164a23.68855,23.68855 0 0 1 -0.46617,0.85811l5.32076,-0.21896a8.91238,8.91238 0 0 0 0.32691,-0.02978q0.35866,-0.04007 0.58178,-0.1016a3.76197,3.76197 0 0 1 0.16729,-0.04226q0.19947,-0.04532 0.32538,-0.04532a0.43924,0.43924 0 0 1 0.10992,0.01598q0.10707,0.02803 0.2529,0.1051a2.74818,2.74818 0 0 1 0.15174,0.08693a2.77205,2.77205 0 0 1 0.552,0.44778a3.13334,3.13334 0 0 1 0.07204,0.07773q0.24699,0.27545 0.27961,0.4931a0.43836,0.43836 0 0 1 0.00504,0.06525q0,0.36807 -0.43486,0.46967a1.50361,1.50361 0 0 1 -0.24392,0.03394zm-1.53273,-11.8896l-14.32007,0.78826l-0.50361,0a1.80096,1.80096 0 0 1 -0.35034,-0.07379q-0.20648,-0.067 -0.35888,-0.18415a0.98401,0.98401 0 0 1 -0.14473,-0.13619q-0.22903,-0.26429 -0.3164,-0.52157a1.04795,1.04795 0 0 1 -0.03394,-0.12437a20.02554,20.02554 0 0 1 -0.01533,-0.0751q-0.04795,-0.23582 -0.05014,-0.28202a0.08452,0.08452 0 0 1 -0.00022,-0.00416a0.49025,0.49025 0 0 1 0.01051,-0.10663q0.03372,-0.15021 0.17451,-0.17364a0.33983,0.33983 0 0 1 0.05584,-0.00438a0.73374,0.73374 0 0 1 0.09043,0.00635q0.09612,0.01204 0.22706,0.04708a2.95466,2.95466 0 0 1 0.04379,0.01226q0.22991,0.06569 0.77731,0.06569q0.28465,0 6.02144,-0.30655l-0.04379,-3.28442q0,-0.43792 -0.37223,-1.00722q-0.06131,-0.09196 -0.0797,-0.17342a0.30589,0.30589 0 0 1 -0.00788,-0.06744a0.29757,0.29757 0 0 1 0.03613,-0.15065q0.08956,-0.1559 0.40179,-0.1559q0.30655,0 1.06196,0.20801a1.75848,1.75848 0 0 1 0.30348,0.11167q0.15546,0.07576 0.25728,0.17561a0.62951,0.62951 0 0 1 0.19466,0.46814l-0.0219,3.78803l5.14559,-0.28465q0.41515,-0.0346 0.6525,-0.09656a1.27808,1.27808 0 0 0 0.11386,-0.03481a1.81825,1.81825 0 0 1 0.15787,-0.04992q0.08058,-0.02124 0.15218,-0.03044a0.82592,0.82592 0 0 1 0.10598,-0.00723a0.44274,0.44274 0 0 1 0.13313,0.02299q0.12349,0.03919 0.28027,0.14517a2.28858,2.28858 0 0 1 0.10116,0.0727a3.53601,3.53601 0 0 1 0.49507,0.45281a3.23209,3.23209 0 0 1 0.06328,0.0727a1.93058,1.93058 0 0 1 0.10247,0.13138q0.09459,0.13379 0.12459,0.23823a0.32866,0.32866 0 0 1 0.01379,0.09021a0.35472,0.35472 0 0 1 -0.21174,0.33107q-0.16729,0.08758 -0.46704,0.10685zm80.38069,10.92617l-0.15327,-8.21105q0,-0.76636 -0.24086,-1.22618q-0.05321,-0.16006 -0.06328,-0.29122a0.77644,0.77644 0 0 1 -0.00241,-0.05912q0,-0.31596 0.35647,-0.34705a0.94394,0.94394 0 0 1 0.08145,-0.00328a0.80512,0.80512 0 0 1 0.1697,0.02299q0.36676,0.08233 1.18787,0.45872l5.40834,-0.32844a0.85088,0.85088 0 0 1 0.40836,0.10817q0.11999,0.06459 0.23714,0.16794a1.63455,1.63455 0 0 1 0.03328,0.03044a1.52769,1.52769 0 0 1 0.157,0.16838q0.07226,0.09153 0.11408,0.18108a0.56799,0.56799 0 0 1 0.05737,0.24173a1.72104,1.72104 0 0 1 -0.00635,0.15349q-0.01423,0.15721 -0.05934,0.26253a1.04094,1.04094 0 0 0 -0.02014,0.16772q-0.08386,1.03941 -0.35209,8.41556q0.49529,0.49529 0.55967,0.75848a0.31049,0.31049 0 0 1 0.00963,0.07357q0,0.39128 -0.46245,0.50821a1.57827,1.57827 0 0 1 -0.23823,0.03919l-5.6492,0.15327l0.0219,0.65688a0.78804,0.78804 0 0 1 -0.02715,0.21655q-0.09459,0.33085 -0.52025,0.33085a0.81629,0.81629 0 0 1 -0.16335,-0.01817q-0.15765,-0.03219 -0.35647,-0.1224a2.7565,2.7565 0 0 1 -0.02759,-0.0127a1.40048,1.40048 0 0 1 -0.27918,-0.17364a0.78914,0.78914 0 0 1 -0.31202,-0.63652q0.13138,-1.09481 0.13138,-1.686zm8.51759,-13.90404l-3.89751,0.26275a9.95924,9.95924 0 0 1 1.00262,0.78016a8.38906,8.38906 0 0 1 0.45347,0.43508a9.19353,9.19353 0 0 1 0.21217,0.22641q0.40552,0.44953 0.41187,0.61156a0.12984,0.12984 0 0 1 0,0.00504a0.4377,0.4377 0 0 1 -0.02036,0.12371q-0.05299,0.17736 -0.24239,0.44559q-0.22487,0.31881 -0.44997,0.36457a0.37771,0.37771 0 0 1 -0.07554,0.00766a0.52463,0.52463 0 0 1 -0.22662,-0.05562q-0.1651,-0.07883 -0.34311,-0.26888a2.17034,2.17034 0 0 1 -0.04335,-0.04773a14.46458,14.46458 0 0 0 -1.46113,-1.40091a16.38115,16.38115 0 0 0 -0.37815,-0.30698a0.99781,0.99781 0 0 1 -0.12984,-0.12831q-0.06547,-0.07883 -0.09853,-0.1605a0.44997,0.44997 0 0 1 -0.03438,-0.17101a0.51543,0.51543 0 0 1 0.07751,-0.2691a0.71907,0.71907 0 0 1 0.07576,-0.10313l-1.1386,0.08758a20.1024,20.1024 0 0 1 -1.08167,1.36785q-0.56601,0.65207 -1.12831,1.16466a10.69232,10.69232 0 0 1 -0.43946,0.37968q-0.46967,0.34333 -0.7009,0.40333a0.35209,0.35209 0 0 1 -0.08737,0.0127a0.44121,0.44121 0 0 1 -0.1213,-0.01511q-0.13597,-0.03898 -0.1721,-0.1778a0.45172,0.45172 0 0 1 -0.01314,-0.11364q0,-0.21896 0.28465,-0.5912a21.569,21.569 0 0 0 2.68709,-4.20778a19.89526,19.89526 0 0 0 0.29078,-0.63127q0.17517,-0.30655 0.17517,-0.94153q0,-0.33786 0.2575,-0.38603a0.50492,0.50492 0 0 1 0.09284,-0.0081a0.44646,0.44646 0 0 1 0.09021,0.01095q0.14079,0.02956 0.38253,0.1397a4.82109,4.82109 0 0 1 0.05277,0.02452a3.46703,3.46703 0 0 1 0.36698,0.19575q0.57455,0.35713 0.57455,0.76768a0.46989,0.46989 0 0 1 -0.01511,0.11298q-0.0254,0.10182 -0.09306,0.22816a1.7195,1.7195 0 0 1 -0.02321,0.04204q-0.13138,0.22991 -0.2737,0.49266a86.97646,86.97646 0 0 0 -0.04905,0.09087q-0.09744,0.18021 -0.11517,0.21568a595.5305,595.5305 0 0 0 1.01357,-0.08321q3.32055,-0.27523 3.46419,-0.33282a0.94985,0.94985 0 0 1 0.17145,-0.05124a0.76439,0.76439 0 0 1 0.14605,-0.01445a0.4261,0.4261 0 0 1 0.10072,0.01358q0.10072,0.02452 0.23363,0.09437a2.08517,2.08517 0 0 1 0.08167,0.04532a2.37551,2.37551 0 0 1 0.2991,0.18042q0.34005,0.24458 0.40705,0.53054a0.62404,0.62404 0 0 1 0.01642,0.14298a0.38362,0.38362 0 0 1 -0.20057,0.35231q-0.07729,0.04532 -0.18437,0.07379a1.30632,1.30632 0 0 1 -0.18437,0.03372zm-14.42955,-2.34289l0,-0.21896a0.85811,0.85811 0 0 1 0.01336,-0.15853q0.0497,-0.26341 0.28596,-0.27852a0.46048,0.46048 0 0 1 0.02912,-0.00088a0.36523,0.36523 0 0 1 0.07357,0.00898q0.11693,0.02474 0.32319,0.11649a4.69453,4.69453 0 0 1 0.08496,0.03876a3.64176,3.64176 0 0 1 0.59645,0.3545a4.06961,4.06961 0 0 1 0.08233,0.06153a1.04029,1.04029 0 0 1 0.1732,0.16488q0.11101,0.13554 0.14276,0.28947a0.6236,0.6236 0 0 1 0.01248,0.1259a0.55222,0.55222 0 0 1 -0.03263,0.16816q-0.09087,0.27523 -0.4353,0.77775a10.98835,10.98835 0 0 1 -0.16707,0.23648a250.83527,250.83527 0 0 0 0.7852,-0.05802q2.58418,-0.19509 2.87146,-0.28137a4.93714,4.93714 0 0 1 0.1432,-0.04073q0.20035,-0.05365 0.30151,-0.05759a0.3961,0.3961 0 0 1 0.01511,-0.00022a0.33764,0.33764 0 0 1 0.10072,0.0173q0.09481,0.03 0.2183,0.11123a1.94788,1.94788 0 0 1 0.097,0.06853q0.71535,0.4769 0.72257,0.8465a0.38537,0.38537 0 0 1 0,0.00744a0.35537,0.35537 0 0 1 -0.2021,0.32647q-0.14758,0.08233 -0.40311,0.11058a2.04006,2.04006 0 0 1 -0.00788,0.00088l-3.43769,0.24086a14.65858,14.65858 0 0 1 0.6028,0.43004q1.17079,0.88504 1.17079,1.36544a0.51522,0.51522 0 0 1 -0.05233,0.21896q-0.07182,0.15371 -0.24195,0.31749a1.8938,1.8938 0 0 1 -0.02321,0.0219q-0.25159,0.23429 -0.44121,0.2829a0.38318,0.38318 0 0 1 -0.09525,0.0127a0.32253,0.32253 0 0 1 -0.13576,-0.03657q-0.19159,-0.09131 -0.49135,-0.41121a5.9356,5.9356 0 0 1 -0.13926,-0.15437q-0.52551,-0.60214 -1.04007,-0.98533a3.29931,3.29931 0 0 1 -0.19422,-0.15524q-0.32034,-0.27874 -0.32034,-0.4688a0.60587,0.60587 0 0 1 0.03197,-0.19969a0.52967,0.52967 0 0 1 0.09941,-0.17254l-0.96343,0.08758q-1.59842,2.01444 -3.24063,3.08735a9.03522,9.03522 0 0 1 -0.23013,0.14889q-0.35187,0.2194 -0.52879,0.27217a0.34246,0.34246 0 0 1 -0.09503,0.01686a0.44121,0.44121 0 0 1 -0.1213,-0.01511q-0.13597,-0.03898 -0.1721,-0.1778a0.45172,0.45172 0 0 1 -0.01314,-0.11364a0.27261,0.27261 0 0 1 0.02628,-0.10401q0.07051,-0.164 0.33085,-0.45719a7.13026,7.13026 0 0 1 0.19028,-0.20517a19.37961,19.37961 0 0 0 1.1386,-1.29756q0.56426,-0.70024 1.13794,-1.52375a32.87879,32.87879 0 0 0 0.17583,-0.25509a20.58171,20.58171 0 0 0 0.42413,-0.64528q0.64506,-1.02561 0.7852,-1.58637a1.15305,1.15305 0 0 0 0.03876,-0.27545zm-68.92902,15.8528q-0.39413,0 -0.71162,-0.26275a2.69519,2.69519 0 0 1 -0.41449,-0.42457a2.41033,2.41033 0 0 1 -0.11101,-0.15568a2.11363,2.11363 0 0 1 -0.09591,-0.16006q-0.08693,-0.16269 -0.10642,-0.28618a0.43748,0.43748 0 0 1 -0.00569,-0.06832a0.21918,0.21918 0 0 1 0.12437,-0.20889q0.09284,-0.04839 0.25509,-0.05343a1.23056,1.23056 0 0 1 0.03657,-0.00044q1.27961,-0.18064 2.90058,-0.55791a56.44056,56.44056 0 0 0 1.54433,-0.38362a72.81952,72.81952 0 0 0 0.56317,-1.76702q0.73352,-2.41689 0.85701,-3.60454a4.20822,4.20822 0 0 0 0.02496,-0.43092q0,-0.31903 -0.06197,-0.50383a0.73002,0.73002 0 0 0 -0.00372,-0.01073q-0.06569,-0.18612 -0.06569,-0.2737a0.41909,0.41909 0 0 1 0.02452,-0.14911q0.0762,-0.20123 0.3915,-0.20123a0.98467,0.98467 0 0 1 0.1929,0.02146q0.24195,0.04861 0.58441,0.20845q0.49266,0.22991 0.64594,0.39413a0.89205,0.89205 0 0 1 0.07072,0.08496q0.08255,0.11408 0.08255,0.21064q0,0.09328 -0.127,0.63061a35.13803,35.13803 0 0 1 -0.04817,0.20144a21.20246,21.20246 0 0 1 -0.57061,1.98467q-0.33764,0.99956 -0.79614,2.08079a36.65368,36.65368 0 0 1 -0.31925,0.7298a77.32574,77.32574 0 0 0 0.7333,-0.22225q0.28969,-0.08934 0.55244,-0.17342a42.90569,42.90569 0 0 0 0.49879,-0.16269q0.75542,-0.25181 1.06196,-0.25181q0.4042,0 0.41581,0.26867a0.37333,0.37333 0 0 1 0.00022,0.01598q0,0.37202 -1.59864,1.10444a19.82782,19.82782 0 0 1 -0.19685,0.0889q-1.79548,0.79921 -3.88656,1.54368a65.22156,65.22156 0 0 1 -0.72301,0.25312q-1.43376,0.49135 -1.71841,0.49135zm7.55416,-9.96274l-7.09435,0.45982q-0.62951,0 -0.85001,-0.15065a0.39676,0.39676 0 0 1 -0.00394,-0.00263a3.74161,3.74161 0 0 1 -0.30633,-0.30895q-0.39435,-0.45172 -0.39435,-0.82964q0,-0.28465 0.26275,-0.28465a0.85198,0.85198 0 0 1 0.09065,0.00526q0.09393,0.01029 0.2183,0.03941a2.99955,2.99955 0 0 1 0.04138,0.01007q0.16991,0.04248 0.48434,0.05189a6.43637,6.43637 0 0 0 0.19444,0.00285a3.04072,3.04072 0 0 0 0.10204,-0.00241q0.46464,-0.01664 2.43792,-0.15086l-0.04379,-2.38668q0,-0.32844 -0.18612,-0.63499q-0.1697,-0.27939 -0.18458,-0.41318a0.22137,0.22137 0 0 1 -0.00153,-0.02474a0.27239,0.27239 0 0 1 0.16269,-0.26034q0.12109,-0.06065 0.33238,-0.06722a1.6941,1.6941 0 0 1 0.05233,-0.00088q0.41603,0 0.94153,0.26275a1.43595,1.43595 0 0 1 0.22991,0.14101q0.12021,0.09174 0.19137,0.19772a0.59645,0.59645 0 0 1 0.10423,0.34005l-0.04379,2.78081a116.63105,116.63105 0 0 0 0.4758,-0.037q1.56732,-0.1259 1.76855,-0.1929q0.14977,-0.04992 0.26691,-0.06722a0.79527,0.79527 0 0 1 0.11627,-0.00942q0.15327,0 0.45982,0.17517q0.78826,0.45982 0.78826,0.91964a0.35537,0.35537 0 0 1 -0.2021,0.32647q-0.14758,0.08233 -0.40311,0.11058a2.04006,2.04006 0 0 1 -0.00788,0.00088zm-22.88146,9.34965q-0.37223,0 -0.49266,-0.17517a0.78213,0.78213 0 0 1 -0.05321,-0.09569q-0.13291,-0.27239 -0.41756,-1.1086a24.74153,24.74153 0 0 0 -0.68447,-1.89774q-0.67571,-1.67133 -1.70221,-3.64198a2.29778,2.29778 0 0 1 -0.09196,-0.20692q-0.08189,-0.21458 -0.08321,-0.3788a0.66761,0.66761 0 0 1 0,-0.00547q0,-0.28465 0.40508,-0.49266q0.34793,-0.17867 0.57477,-0.20385a0.6455,0.6455 0 0 1 0.07116,-0.00416a0.36501,0.36501 0 0 1 0.18962,0.05802q0.12787,0.07729 0.26056,0.25728a2.15042,2.15042 0 0 1 0.09722,0.14451a37.82184,37.82184 0 0 1 2.20582,4.37572a33.05155,33.05155 0 0 1 0.59689,1.51434a11.05557,11.05557 0 0 1 0.09393,0.28465q0.12218,0.38975 0.14276,0.5855a0.68885,0.68885 0 0 1 0.00416,0.07138a0.62382,0.62382 0 0 1 -0.11189,0.35275q-0.05759,0.08627 -0.14517,0.16751a1.20232,1.20232 0 0 1 -0.00569,0.00526a3.00108,3.00108 0 0 1 -0.25662,0.18152q-0.27195,0.17013 -0.49091,0.20407a0.69236,0.69236 0 0 1 -0.10642,0.00854zm25.31193,-3.50338l0.26275,4.24785l4.72956,-0.15327l0.52551,-4.31354l-5.51782,0.21896zm38.82184,-9.65619l0.04379,1.55463l7.46658,-0.50361l0.04379,-1.53273l-7.55416,0.48171zm0.08758,2.93408l0.04379,1.51083l7.29141,-0.43792l0.04379,-1.53273l-7.379,0.45982zm11.25417,14.0052a2.46572,2.46572 0 0 0 0.14276,-0.14495a1.85942,1.85942 0 0 0 0.12174,-0.14736q0.21765,-0.29472 0.21765,-0.57521a0.55134,0.55134 0 0 0 -0.00635,-0.08321q-0.03372,-0.22181 -0.24699,-0.46091a2.15567,2.15567 0 0 0 -0.20648,-0.20035a52.07053,52.07053 0 0 0 -1.12196,-0.88701q-1.78716,-1.37245 -3.27916,-2.24413a17.79608,17.79608 0 0 0 -0.21436,-0.12328q-0.46004,-0.25969 -0.64309,-0.31903a0.29582,0.29582 0 0 0 -0.08408,-0.01752a0.21502,0.21502 0 0 0 -0.01511,0.00066q-0.14933,0.01051 -0.35297,0.22662a2.27326,2.27326 0 0 0 -0.12459,0.14495a2.54192,2.54192 0 0 0 -0.05518,0.07204q-0.14867,0.20166 -0.20539,0.36939a0.60587,0.60587 0 0 0 -0.03503,0.19356q0,0.30655 0.39413,0.5474q1.48894,0.91964 3.19683,2.32099q0.85395,0.65688 1.36851,1.10575q0.388,0.33851 0.60784,0.42172a0.36282,0.36282 0 0 0 0.12568,0.02715a0.35691,0.35691 0 0 0 0.14254,-0.0335q0.12262,-0.05386 0.27304,-0.19378zm-11.1009,-8.26842l0.04379,1.686l6.94107,-0.30655l0.06569,-1.72979l-7.05055,0.35034zm-0.08758,-2.8246l0.04379,1.42325l7.13814,-0.32844l0.04379,-1.53273l-7.22572,0.43792zm-47.18616,4.20406a1.48828,1.48828 0 0 0 0.03854,0.14495q0.15086,0.46814 0.55266,0.46814a0.85548,0.85548 0 0 0 0.06021,-0.00219q0.15612,-0.01095 0.37092,-0.07707a3.57016,3.57016 0 0 0 0.2148,-0.07401a1.15918,1.15918 0 0 0 0.03766,-0.01489q0.36742,-0.15393 0.36742,-0.46683q0,-0.24086 -0.41603,-1.65316a14.26949,14.26949 0 0 0 -0.12744,-0.40968q-0.41033,-1.25246 -1.14254,-2.75431a1.30282,1.30282 0 0 0 -0.0878,-0.16488q-0.05759,-0.09065 -0.12284,-0.1513a0.42041,0.42041 0 0 0 -0.29297,-0.12174a0.60827,0.60827 0 0 0 -0.10335,0.01029q-0.16772,0.02934 -0.44405,0.14298a1.08233,1.08233 0 0 0 -0.08211,0.03766q-0.29012,0.14889 -0.29012,0.40026a0.89424,0.89424 0 0 0 0.02102,0.19159a1.05452,1.05452 0 0 0 0.08846,0.24633q0.78826,1.77359 1.35756,4.24785zm74.53443,2.01444l0.04379,2.14582l4.33543,-0.13138l0.06569,-2.18961l-4.44491,0.17517zm-0.10948,-6.1966l0.04379,1.7079l4.62008,-0.24086l0.04379,-1.75169l-4.70767,0.28465zm0.06569,3.04356l0.0219,1.81738l4.48871,-0.19707l0.04379,-1.83927l-4.55439,0.21896zm-106.89691,-4.86094l-0.04379,3.80993l2.34289,-0.08758l0.30655,-3.89751l-2.60564,0.17517zm-4.29164,0.24086l0.30655,3.72234l2.36478,-0.10948l0.0219,-3.78803l-2.69322,0.17517z"/>
   </g>
  </g>
 </g>

</svg>